<?xml version="1.0" encoding="utf-8"?>
<!-- Generator: Adobe Illustrator 24.0.2, SVG Export Plug-In . SVG Version: 6.00 Build 0)  -->
<svg version="1.1" id="Capa_1" xmlns="http://www.w3.org/2000/svg" xmlns:xlink="http://www.w3.org/1999/xlink" x="0px" y="0px"
	 viewBox="0 0 362.27 141.73" style="enable-background:new 0 0 362.27 141.73;" xml:space="preserve">
<style type="text/css">
	.st0{clip-path:url(#SVGID_2_);fill:url(#SVGID_3_);stroke:#000000;stroke-width:0.25;stroke-miterlimit:10;}
	.st1{clip-path:url(#SVGID_5_);fill:url(#SVGID_6_);stroke:#000000;stroke-width:0.25;stroke-miterlimit:10;}
	.st2{fill:#B4B4B4;stroke:#000000;stroke-width:0.25;stroke-miterlimit:10;}
	.st3{fill:none;stroke:#000000;stroke-width:0.25;stroke-miterlimit:10;}
	.st4{fill:#E7E6E6;stroke:#000000;stroke-width:0.25;stroke-miterlimit:10;}
	.st5{fill:#343434;stroke:#000000;stroke-width:0.25;stroke-miterlimit:10;}
	.st6{fill:#808181;stroke:#000000;stroke-width:0.25;stroke-miterlimit:10;}
	.st7{fill:#4E4D4D;stroke:#000000;stroke-width:0.25;stroke-miterlimit:10;}
	.st8{fill:#FFFFFF;stroke:#000000;stroke-width:0.25;stroke-miterlimit:10;}
	.st9{fill:#CDCCCC;stroke:#000000;stroke-width:0.25;stroke-miterlimit:10;}
	.st10{fill:#F8E9C0;stroke:#000000;stroke-width:0.25;stroke-miterlimit:10;}
	.st11{fill:#F5EAC3;stroke:#000000;stroke-width:0.25;stroke-miterlimit:10;}
	.st12{fill:#9A9999;stroke:#000000;stroke-width:0.25;stroke-miterlimit:10;}
	.st13{fill:#F39323;stroke:#000000;stroke-width:0.25;stroke-miterlimit:10;}
	.st14{fill:#020203;stroke:#000000;stroke-width:0.25;stroke-miterlimit:10;}
	.st15{fill:none;stroke:#000000;stroke-width:1.5;stroke-miterlimit:10;}
	.st16{font-family:'MyriadPro-Regular';}
	.st17{font-size:8px;}
</style>
<g>
	<g>
		<g>
			<g>
				<defs>
					<rect id="SVGID_1_" x="170.36" y="58.2" width="2.02" height="49.05"/>
				</defs>
				<clipPath id="SVGID_2_">
					<use xlink:href="#SVGID_1_"  style="overflow:visible;"/>
				</clipPath>
				
					<linearGradient id="SVGID_3_" gradientUnits="userSpaceOnUse" x1="33.8779" y1="187.1644" x2="34.878" y2="187.1644" gradientTransform="matrix(2.0218 0 0 -2.0218 101.8658 461.142)">
					<stop  offset="0" style="stop-color:#FFFFFF"/>
					<stop  offset="0.1821" style="stop-color:#C1BBBA"/>
					<stop  offset="0.4734" style="stop-color:#736966"/>
					<stop  offset="0.7167" style="stop-color:#453A37"/>
					<stop  offset="0.8991" style="stop-color:#2B221F"/>
					<stop  offset="1" style="stop-color:#221A16"/>
				</linearGradient>
				<rect x="170.36" y="58.2" class="st0" width="2.02" height="49.05"/>
				<use xlink:href="#SVGID_1_"  style="overflow:visible;fill:none;stroke:#000000;stroke-width:0.25;stroke-miterlimit:10;"/>
			</g>
			<g>
				<defs>
					<rect id="SVGID_4_" x="177.72" y="58.2" width="2.02" height="49.05"/>
				</defs>
				<clipPath id="SVGID_5_">
					<use xlink:href="#SVGID_4_"  style="overflow:visible;"/>
				</clipPath>
				
					<linearGradient id="SVGID_6_" gradientUnits="userSpaceOnUse" x1="33.5897" y1="187.1644" x2="34.5893" y2="187.1644" gradientTransform="matrix(2.0218 0 0 -2.0218 109.8086 461.142)">
					<stop  offset="0" style="stop-color:#FFFFFF"/>
					<stop  offset="0.1821" style="stop-color:#C1BBBA"/>
					<stop  offset="0.4734" style="stop-color:#736966"/>
					<stop  offset="0.7167" style="stop-color:#453A37"/>
					<stop  offset="0.8991" style="stop-color:#2B221F"/>
					<stop  offset="1" style="stop-color:#221A16"/>
				</linearGradient>
				<rect x="177.72" y="58.2" class="st1" width="2.02" height="49.05"/>
				<use xlink:href="#SVGID_4_"  style="overflow:visible;fill:none;stroke:#000000;stroke-width:0.25;stroke-miterlimit:10;"/>
			</g>
		</g>
		<g>
			<path class="st2" d="M157.31,96.99c-0.11-3.85-0.22-7.7-0.33-11.56c-0.32-0.46-0.96-1.52-1.03-3.01
				c-0.1-2.18,1.13-3.68,1.43-4.04l-0.06-12.03c-0.12-0.96-0.72-4.69-3.97-7.32c-1.67-1.35-3.39-1.89-4.44-2.12
				c-1.18,1.39-2.37,2.78-3.56,4.17c0.36,0.73,0.75,1.69,1.03,2.87c0.29,1.23,0.35,2.31,0.34,3.15h7.93v12.51h-7.39v1.92
				c1.81,5.04,3.61,10.08,5.41,15.12"/>
			<path class="st3" d="M157.31,96.99c-0.11-3.85-0.22-7.7-0.33-11.56c-0.32-0.46-0.96-1.52-1.03-3.01
				c-0.1-2.18,1.13-3.68,1.43-4.04l-0.06-12.03c-0.12-0.96-0.72-4.69-3.97-7.32c-1.67-1.35-3.39-1.89-4.44-2.12
				c-1.18,1.39-2.37,2.78-3.56,4.17c0.36,0.73,0.75,1.69,1.03,2.87c0.29,1.23,0.35,2.31,0.34,3.15h7.93v12.51h-7.39v1.92
				c1.81,5.04,3.61,10.08,5.41,15.12"/>
			<path class="st2" d="M151.71,98.63c0,1.74,1.41,3.15,3.15,3.15c1.74,0,3.15-1.41,3.15-3.15s-1.41-3.14-3.15-3.14
				C153.12,95.49,151.71,96.9,151.71,98.63"/>
			<path class="st3" d="M151.71,98.63c0,1.74,1.41,3.15,3.15,3.15c1.74,0,3.15-1.41,3.15-3.15s-1.41-3.14-3.15-3.14
				C153.12,95.49,151.71,96.9,151.71,98.63z"/>
			<path class="st4" d="M140.41,58.17c0,3.12,2.53,5.65,5.65,5.65c3.12,0,5.65-2.53,5.65-5.65c0-3.12-2.53-5.65-5.65-5.65
				C142.94,52.52,140.41,55.05,140.41,58.17"/>
			<path class="st3" d="M140.41,58.17c0,3.12,2.53,5.65,5.65,5.65c3.12,0,5.65-2.53,5.65-5.65c0-3.12-2.53-5.65-5.65-5.65
				C142.94,52.52,140.41,55.05,140.41,58.17z"/>
			<path class="st5" d="M148.98,79.22h2.93c1.21,0,2.19-0.98,2.19-2.19v-7.18c0-1.21-0.98-2.19-2.19-2.19h-2.93
				c-1.21,0-2.19,0.98-2.19,2.19v7.18C146.79,78.24,147.77,79.22,148.98,79.22"/>
			<path class="st3" d="M148.98,79.22h2.93c1.21,0,2.19-0.98,2.19-2.19v-7.18c0-1.21-0.98-2.19-2.19-2.19h-2.93
				c-1.21,0-2.19,0.98-2.19,2.19v7.18C146.79,78.24,147.77,79.22,148.98,79.22z"/>
			<path class="st4" d="M147.53,76.63c0,1.61,1.31,2.92,2.92,2.92c1.61,0,2.92-1.31,2.92-2.92c0-1.61-1.31-2.92-2.92-2.92
				C148.83,73.71,147.53,75.02,147.53,76.63"/>
			<circle class="st3" cx="150.45" cy="76.63" r="2.92"/>
			<path class="st6" d="M142.24,58.17c0,2.11,1.71,3.82,3.82,3.82c2.11,0,3.82-1.71,3.82-3.82c0-2.11-1.71-3.82-3.82-3.82
				C143.95,54.35,142.24,56.06,142.24,58.17"/>
			<path class="st3" d="M142.24,58.17c0,2.11,1.71,3.82,3.82,3.82c2.11,0,3.82-1.71,3.82-3.82c0-2.11-1.71-3.82-3.82-3.82
				C143.95,54.35,142.24,56.06,142.24,58.17z"/>
			<path class="st2" d="M193.84,97.03c0.11-3.85,0.22-7.7,0.33-11.56c0.32-0.46,0.96-1.52,1.03-3.01c0.1-2.18-1.13-3.68-1.43-4.03
				c0.02-4.01,0.04-8.02,0.07-12.03c0.12-0.96,0.72-4.69,3.97-7.32c1.67-1.35,3.39-1.89,4.44-2.12c1.18,1.39,2.37,2.78,3.56,4.17
				c-0.36,0.73-0.75,1.69-1.03,2.87c-0.29,1.23-0.35,2.31-0.34,3.15h-7.93v12.51h7.38v1.92l-5.41,15.12"/>
			<path class="st3" d="M193.84,97.03c0.11-3.85,0.22-7.7,0.33-11.56c0.32-0.46,0.96-1.52,1.03-3.01c0.1-2.18-1.13-3.68-1.43-4.03
				c0.02-4.01,0.04-8.02,0.07-12.03c0.12-0.96,0.72-4.69,3.97-7.32c1.67-1.35,3.39-1.89,4.44-2.12c1.18,1.39,2.37,2.78,3.56,4.17
				c-0.36,0.73-0.75,1.69-1.03,2.87c-0.29,1.23-0.35,2.31-0.34,3.15h-7.93v12.51h7.38v1.92l-5.41,15.12"/>
			<path class="st2" d="M199.44,98.67c0,1.74-1.41,3.15-3.15,3.15c-1.74,0-3.15-1.41-3.15-3.15c0-1.74,1.41-3.14,3.15-3.14
				C198.03,95.53,199.44,96.94,199.44,98.67"/>
			<path class="st3" d="M199.44,98.67c0,1.74-1.41,3.15-3.15,3.15c-1.74,0-3.15-1.41-3.15-3.15c0-1.74,1.41-3.14,3.15-3.14
				C198.03,95.53,199.44,96.94,199.44,98.67z"/>
			<path class="st4" d="M210.73,58.2c0,3.12-2.53,5.65-5.65,5.65c-3.12,0-5.65-2.53-5.65-5.65c0-3.12,2.53-5.65,5.65-5.65
				C208.2,52.56,210.73,55.08,210.73,58.2"/>
			<path class="st3" d="M210.73,58.2c0,3.12-2.53,5.65-5.65,5.65c-3.12,0-5.65-2.53-5.65-5.65c0-3.12,2.53-5.65,5.65-5.65
				C208.2,52.56,210.73,55.08,210.73,58.2z"/>
			<path class="st5" d="M202.16,79.25h-2.93c-1.21,0-2.19-0.98-2.19-2.19v-7.18c0-1.21,0.98-2.19,2.19-2.19h2.93
				c1.21,0,2.19,0.98,2.19,2.19v7.18C204.35,78.27,203.37,79.25,202.16,79.25"/>
			<path class="st3" d="M202.16,79.25h-2.93c-1.21,0-2.19-0.98-2.19-2.19v-7.18c0-1.21,0.98-2.19,2.19-2.19h2.93
				c1.21,0,2.19,0.98,2.19,2.19v7.18C204.35,78.27,203.37,79.25,202.16,79.25z"/>
			<path class="st4" d="M203.62,76.67c0,1.61-1.31,2.92-2.92,2.92c-1.61,0-2.92-1.31-2.92-2.92c0-1.61,1.31-2.92,2.92-2.92
				C202.31,73.75,203.62,75.06,203.62,76.67"/>
			<circle class="st3" cx="200.7" cy="76.67" r="2.92"/>
			<path class="st6" d="M208.9,58.2c0,2.11-1.71,3.82-3.82,3.82c-2.11,0-3.82-1.71-3.82-3.82c0-2.11,1.71-3.82,3.82-3.82
				C207.19,54.39,208.9,56.1,208.9,58.2"/>
			<path class="st3" d="M208.9,58.2c0,2.11-1.71,3.82-3.82,3.82c-2.11,0-3.82-1.71-3.82-3.82c0-2.11,1.71-3.82,3.82-3.82
				C207.19,54.39,208.9,56.1,208.9,58.2z"/>
			<rect x="161.35" y="90.79" class="st7" width="28.1" height="2.19"/>
			<rect x="161.35" y="90.79" class="st3" width="28.1" height="2.19"/>
			<rect x="164.83" y="89.36" class="st7" width="21.33" height="1.44"/>
			<rect x="164.83" y="89.36" class="st3" width="21.33" height="1.44"/>
			<rect x="167.36" y="87.58" class="st7" width="16.27" height="1.78"/>
			<rect x="167.36" y="87.58" class="st3" width="16.27" height="1.78"/>
			<polyline class="st2" points="156.14,94.71 161.35,92.98 168.53,92.98 168.53,96.13 164.42,96.13 158.76,100.04 			"/>
			<polyline class="st3" points="156.14,94.71 161.35,92.98 168.53,92.98 168.53,96.13 164.42,96.13 158.76,100.04 			"/>
			<polyline class="st2" points="194.93,94.71 189.73,92.98 182.55,92.98 182.55,96.13 186.65,96.13 192.32,100.04 			"/>
			<polyline class="st3" points="194.93,94.71 189.73,92.98 182.55,92.98 182.55,96.13 186.65,96.13 192.32,100.04 			"/>
			<path class="st2" d="M175.5,127.65c10.55-0.02,21.11-0.04,31.66-0.07c0.08-0.46,0.13-1.14-0.07-1.92
				c-0.31-1.18-1.05-1.93-1.3-2.19c-1.53-1.6-2.56-3.89-3.76-6.56c-0.73-1.63-1.01-3.43-1.54-6.96c-0.36-2.39-0.77-5.67-0.99-9.66
				c0.26-3.15-2.11-5.34-3.97-5.2c-1.67,0.13-3.47,2.21-3.29,4.94c0.13,1.5,0.17,3.8-0.47,6.48c-0.57,2.39-1.09,4.59-3.01,6.36
				c-2.27,2.1-5.13,2.33-6.36,2.36l-6.91,0.24"/>
			<path class="st3" d="M175.5,127.65c10.55-0.02,21.11-0.04,31.66-0.07c0.08-0.46,0.13-1.14-0.07-1.92
				c-0.31-1.18-1.05-1.93-1.3-2.19c-1.53-1.6-2.56-3.89-3.76-6.56c-0.73-1.63-1.01-3.43-1.54-6.96c-0.36-2.39-0.77-5.67-0.99-9.66
				c0.26-3.15-2.11-5.34-3.97-5.2c-1.67,0.13-3.47,2.21-3.29,4.94c0.13,1.5,0.17,3.8-0.47,6.48c-0.57,2.39-1.09,4.59-3.01,6.36
				c-2.27,2.1-5.13,2.33-6.36,2.36l-6.91,0.24"/>
			<path class="st2" d="M175.5,127.65c-10.55-0.02-21.11-0.04-31.66-0.07c-0.08-0.46-0.13-1.14,0.07-1.92
				c0.31-1.18,1.05-1.93,1.3-2.19c1.53-1.6,2.56-3.89,3.76-6.56c0.73-1.63,1.01-3.43,1.55-6.96c0.36-2.39,0.77-5.67,0.98-9.66
				c-0.26-3.15,2.11-5.34,3.97-5.2c1.67,0.13,3.47,2.21,3.29,4.94c-0.13,1.5-0.17,3.8,0.47,6.48c0.57,2.39,1.09,4.59,3.01,6.36
				c2.27,2.1,5.14,2.33,6.36,2.36c2.3,0.08,4.61,0.16,6.91,0.24"/>
			<path class="st3" d="M175.5,127.65c-10.55-0.02-21.11-0.04-31.66-0.07c-0.08-0.46-0.13-1.14,0.07-1.92
				c0.31-1.18,1.05-1.93,1.3-2.19c1.53-1.6,2.56-3.89,3.76-6.56c0.73-1.63,1.01-3.43,1.55-6.96c0.36-2.39,0.77-5.67,0.98-9.66
				c-0.26-3.15,2.11-5.34,3.97-5.2c1.67,0.13,3.47,2.21,3.29,4.94c-0.13,1.5-0.17,3.8,0.47,6.48c0.57,2.39,1.09,4.59,3.01,6.36
				c2.27,2.1,5.14,2.33,6.36,2.36c2.3,0.08,4.61,0.16,6.91,0.24"/>
			<path class="st8" d="M199.99,98.52c0,2.19-1.78,3.97-3.97,3.97c-2.19,0-3.97-1.78-3.97-3.97c0-2.19,1.78-3.97,3.97-3.97
				C198.21,94.55,199.99,96.33,199.99,98.52"/>
			<circle class="st3" cx="196.02" cy="98.52" r="3.97"/>
			<path class="st8" d="M159.01,98.52c0,2.19-1.78,3.97-3.97,3.97s-3.97-1.78-3.97-3.97c0-2.19,1.78-3.97,3.97-3.97
				S159.01,96.33,159.01,98.52"/>
			<circle class="st3" cx="155.04" cy="98.52" r="3.97"/>
			<path class="st5" d="M178.31,126.21h-6.44c-1.24,0-2.25-1.01-2.25-2.25v-6.44c0-1.24,1.01-2.25,2.25-2.25h6.44
				c1.24,0,2.25,1.01,2.25,2.25v6.44C180.56,125.21,179.55,126.21,178.31,126.21"/>
			<path class="st3" d="M178.31,126.21h-6.44c-1.24,0-2.25-1.01-2.25-2.25v-6.44c0-1.24,1.01-2.25,2.25-2.25h6.44
				c1.24,0,2.25,1.01,2.25,2.25v6.44C180.56,125.21,179.55,126.21,178.31,126.21z"/>
			<polyline class="st6" points="175.09,114.59 169.62,114.59 169.62,108.23 170.17,107.68 172.63,107.68 173.04,108.09 
				173.04,112.95 175.09,113.36 			"/>
			<polyline class="st3" points="175.09,114.59 169.62,114.59 169.62,108.23 170.17,107.68 172.63,107.68 173.04,108.09 
				173.04,112.95 175.09,113.36 			"/>
			<polyline class="st6" points="175.09,114.59 180.56,114.59 180.56,108.23 180.01,107.68 177.55,107.68 177.14,108.09 
				177.14,112.95 175.09,113.36 			"/>
			<polyline class="st3" points="175.09,114.59 180.56,114.59 180.56,108.23 180.01,107.68 177.55,107.68 177.14,108.09 
				177.14,112.95 175.09,113.36 			"/>
			<circle class="st3" cx="196.02" cy="98.56" r="2.19"/>
			<circle class="st3" cx="155.04" cy="98.56" r="2.19"/>
		</g>
		<g>
			<polyline class="st6" points="174.99,50.81 169.52,50.81 169.52,57.17 170.06,57.72 172.52,57.72 172.93,57.31 172.93,52.45 
				174.99,52.04 			"/>
			<polyline class="st3" points="174.99,50.81 169.52,50.81 169.52,57.17 170.06,57.72 172.52,57.72 172.93,57.31 172.93,52.45 
				174.99,52.04 			"/>
			<polyline class="st6" points="174.99,50.81 180.46,50.81 180.46,57.17 179.91,57.72 177.45,57.72 177.04,57.31 177.04,52.45 
				174.99,52.04 			"/>
			<polyline class="st3" points="174.99,50.81 180.46,50.81 180.46,57.17 179.91,57.72 177.45,57.72 177.04,57.31 177.04,52.45 
				174.99,52.04 			"/>
			<path class="st9" d="M175.01,0.09c-6.6,0.06-13.16,3.88-17.04,9.1c-5.92,7.97-4.32,17.54-4.04,19.21
				c0.27,1.63,0.75,3.34,1.64,8.34c0.62,3.47,1.05,6.32,1.31,8.2c0.34,0.94,0.94,2.27,2,3.61c1.01,1.27,1.72,1.65,4.88,3.88
				c3.9,2.75,4.77,3.55,6.59,4.31c1.89,0.79,3.38,0.95,4.23,0.98c0.36,0.01,0.66,0.01,0.87,0c0.85-0.03,2.34-0.19,4.23-0.98
				c1.82-0.76,2.69-1.56,6.59-4.31c3.2-2.26,3.87-2.61,4.87-3.88c0.21-0.27,1.18-1.52,2.01-3.61c1.2-3.04,1.04-5.17,1.31-8.2
				c0.38-4.18,1.17-5.5,1.64-8.34c0.27-1.61,1.87-11.21-4.04-19.21c-3.68-4.97-10.04-9.03-16.73-9.1
				C175.26,0.09,175.15,0.09,175.01,0.09"/>
			<path class="st3" d="M175.01,0.09c-6.6,0.06-13.16,3.88-17.04,9.1c-5.92,7.97-4.32,17.54-4.04,19.21
				c0.27,1.63,0.75,3.34,1.64,8.34c0.62,3.47,1.05,6.32,1.31,8.2c0.34,0.94,0.94,2.27,2,3.61c1.01,1.27,1.72,1.65,4.88,3.88
				c3.9,2.75,4.77,3.55,6.59,4.31c1.89,0.79,3.38,0.95,4.23,0.98c0.36,0.01,0.66,0.01,0.87,0c0.85-0.03,2.34-0.19,4.23-0.98
				c1.82-0.76,2.69-1.56,6.59-4.31c3.2-2.26,3.87-2.61,4.87-3.88c0.21-0.27,1.18-1.52,2.01-3.61c1.2-3.04,1.04-5.17,1.31-8.2
				c0.38-4.18,1.17-5.5,1.64-8.34c0.27-1.61,1.87-11.21-4.04-19.21c-3.68-4.97-10.04-9.03-16.73-9.1
				C175.26,0.09,175.15,0.09,175.01,0.09z"/>
			<path class="st10" d="M178.76,13.52c-0.32,1.49-0.9,4.15,0,7.37c0.45,1.59,0.75,2.68,1.73,3.61c2.27,2.17,6.75,2.19,9.22-0.15
				c1.51-1.43,1.81-3.31,1.9-3.89c0.26-1.77-0.27-3.08-1.01-5.05c-1.11-2.98-2.03-5.45-4.48-6.64c-0.31-0.15-2.98-1.41-5.05-0.14
				C179.64,9.49,179.29,11.09,178.76,13.52"/>
			<path class="st3" d="M178.76,13.52c-0.32,1.49-0.9,4.15,0,7.37c0.45,1.59,0.75,2.68,1.73,3.61c2.27,2.17,6.75,2.19,9.22-0.15
				c1.51-1.43,1.81-3.31,1.9-3.89c0.26-1.77-0.27-3.08-1.01-5.05c-1.11-2.98-2.03-5.45-4.48-6.64c-0.31-0.15-2.98-1.41-5.05-0.14
				C179.64,9.49,179.29,11.09,178.76,13.52z"/>
			<path class="st11" d="M188.01,31.43c0,1.28-1.68,2.31-3.76,2.31c-2.07,0-3.75-1.04-3.75-2.31c0-1.28,1.68-2.31,3.75-2.31
				C186.32,29.12,188.01,30.15,188.01,31.43"/>
			<path class="st3" d="M188.01,31.43c0,1.28-1.68,2.31-3.76,2.31c-2.07,0-3.75-1.04-3.75-2.31c0-1.28,1.68-2.31,3.75-2.31
				C186.32,29.12,188.01,30.15,188.01,31.43z"/>
			<path class="st11" d="M170.68,31.43c0,1.28-1.68,2.31-3.76,2.31c-2.07,0-3.76-1.04-3.76-2.31c0-1.28,1.68-2.31,3.76-2.31
				C168.99,29.12,170.68,30.15,170.68,31.43"/>
			<ellipse class="st3" cx="166.92" cy="31.43" rx="3.76" ry="2.31"/>
			<path class="st10" d="M172.27,13.52c0.32,1.49,0.9,4.15,0,7.37c-0.45,1.59-0.75,2.68-1.73,3.61c-2.27,2.17-6.75,2.19-9.22-0.15
				c-1.5-1.43-1.81-3.31-1.9-3.89c-0.26-1.77,0.27-3.08,1.01-5.05c1.11-2.98,2.03-5.45,4.48-6.64c0.31-0.15,2.98-1.41,5.05-0.14
				C171.4,9.49,171.75,11.09,172.27,13.52"/>
			<path class="st3" d="M172.27,13.52c0.32,1.49,0.9,4.15,0,7.37c-0.45,1.59-0.75,2.68-1.73,3.61c-2.27,2.17-6.75,2.19-9.22-0.15
				c-1.5-1.43-1.81-3.31-1.9-3.89c-0.26-1.77,0.27-3.08,1.01-5.05c1.11-2.98,2.03-5.45,4.48-6.64c0.31-0.15,2.98-1.41,5.05-0.14
				C171.4,9.49,171.75,11.09,172.27,13.52z"/>
			<path class="st5" d="M189.01,25.22h-7.43c-0.62,0-1.13-0.5-1.13-1.13v-3.13c0-0.62,0.5-1.13,1.13-1.13h7.43
				c0.62,0,1.13,0.5,1.13,1.13v3.13C190.14,24.72,189.63,25.22,189.01,25.22"/>
			<path class="st3" d="M189.01,25.22h-7.43c-0.62,0-1.13-0.5-1.13-1.13v-3.13c0-0.62,0.5-1.13,1.13-1.13h7.43
				c0.62,0,1.13,0.5,1.13,1.13v3.13C190.14,24.72,189.63,25.22,189.01,25.22z"/>
			<path class="st4" d="M185.27,22.53c0,0.94-0.76,1.7-1.7,1.7c-0.94,0-1.7-0.76-1.7-1.7c0-0.94,0.76-1.7,1.7-1.7
				C184.51,20.83,185.27,21.59,185.27,22.53"/>
			<path class="st3" d="M185.27,22.53c0,0.94-0.76,1.7-1.7,1.7c-0.94,0-1.7-0.76-1.7-1.7c0-0.94,0.76-1.7,1.7-1.7
				C184.51,20.83,185.27,21.59,185.27,22.53z"/>
			<path class="st5" d="M160.48,19.84h7.43c0.62,0,1.13,0.5,1.13,1.13v3.13c0,0.62-0.5,1.13-1.13,1.13h-7.43
				c-0.62,0-1.13-0.5-1.13-1.13v-3.13C159.35,20.34,159.86,19.84,160.48,19.84"/>
			<path class="st3" d="M160.48,19.84h7.43c0.62,0,1.13,0.5,1.13,1.13v3.13c0,0.62-0.5,1.13-1.13,1.13h-7.43
				c-0.62,0-1.13-0.5-1.13-1.13v-3.13C159.35,20.34,159.86,19.84,160.48,19.84z"/>
			<path class="st4" d="M164.8,22.53c0-0.94,0.76-1.7,1.7-1.7c0.94,0,1.7,0.76,1.7,1.7c0,0.94-0.76,1.7-1.7,1.7
				C165.56,24.23,164.8,23.47,164.8,22.53"/>
			<path class="st3" d="M164.8,22.53c0-0.94,0.76-1.7,1.7-1.7c0.94,0,1.7,0.76,1.7,1.7c0,0.94-0.76,1.7-1.7,1.7
				C165.56,24.23,164.8,23.47,164.8,22.53z"/>
			<rect x="190.71" y="19.19" class="st12" width="2.64" height="6.57"/>
			<rect x="190.71" y="19.19" class="st3" width="2.64" height="6.57"/>
			<path class="st12" d="M180.75,25.22h-11.37V19.3c1.13,0.2,2.72,0.28,3.83-0.65c0.99-0.83,1.06-2.03,1.77-2.09
				c0.78-0.07,1.07,1.35,2.42,2.2c1.13,0.71,2.43,0.68,3.36,0.54V25.22z"/>
			<path class="st3" d="M180.75,25.22h-11.37V19.3c1.13,0.2,2.72,0.28,3.83-0.65c0.99-0.83,1.06-2.03,1.77-2.09
				c0.78-0.07,1.07,1.35,2.42,2.2c1.13,0.71,2.43,0.68,3.36,0.54V25.22z"/>
			<rect x="156.05" y="19.19" class="st12" width="2.64" height="6.57"/>
			<rect x="156.05" y="19.19" class="st3" width="2.64" height="6.57"/>
			<path class="st5" d="M179.92,44.39l7.26-1.58c0.61-0.13,1.21,0.25,1.34,0.86l0.66,3.06c0.13,0.61-0.25,1.21-0.86,1.34l-7.26,1.58
				c-0.61,0.13-1.21-0.25-1.34-0.86l-0.66-3.06C178.93,45.12,179.31,44.52,179.92,44.39"/>
			<path class="st3" d="M179.92,44.39l7.26-1.58c0.61-0.13,1.21,0.25,1.34,0.86l0.66,3.06c0.13,0.61-0.25,1.21-0.86,1.34l-7.26,1.58
				c-0.61,0.13-1.21-0.25-1.34-0.86l-0.66-3.06C178.93,45.12,179.31,44.52,179.92,44.39z"/>
			<path class="st4" d="M184.71,46.1c-0.2-0.92,0.38-1.82,1.3-2.02c0.92-0.2,1.83,0.38,2.02,1.3c0.2,0.92-0.38,1.83-1.3,2.02
				C185.82,47.6,184.91,47.02,184.71,46.1"/>
			<path class="st3" d="M184.71,46.1c-0.2-0.92,0.38-1.82,1.3-2.02c0.92-0.2,1.83,0.38,2.02,1.3c0.2,0.92-0.38,1.83-1.3,2.02
				C185.82,47.6,184.91,47.02,184.71,46.1z"/>
			<path class="st5" d="M170.08,49.54l-7.3-1.35c-0.61-0.11-1.01-0.7-0.9-1.31l0.57-3.08c0.11-0.61,0.7-1.02,1.31-0.9l7.3,1.35
				c0.61,0.11,1.01,0.7,0.9,1.31l-0.57,3.08C171.28,49.25,170.69,49.66,170.08,49.54"/>
			<path class="st3" d="M170.08,49.54l-7.3-1.35c-0.61-0.11-1.01-0.7-0.9-1.31l0.57-3.08c0.11-0.61,0.7-1.02,1.31-0.9l7.3,1.35
				c0.61,0.11,1.01,0.7,0.9,1.31l-0.57,3.08C171.28,49.25,170.69,49.66,170.08,49.54z"/>
			<path class="st4" d="M166.33,46.12c-0.17,0.92-1.06,1.54-1.98,1.36c-0.92-0.17-1.54-1.06-1.36-1.98
				c0.17-0.93,1.06-1.53,1.98-1.36C165.89,44.3,166.5,45.19,166.33,46.12"/>
			<path class="st3" d="M166.33,46.12c-0.17,0.92-1.06,1.54-1.98,1.36c-0.92-0.17-1.54-1.06-1.36-1.98
				c0.17-0.93,1.06-1.53,1.98-1.36C165.89,44.3,166.5,45.19,166.33,46.12z"/>
			<path class="st12" d="M179.14,41.59c0,1.13-1.77,1.14-4.06,1.08c-1.92-0.05-3.51,0.12-3.38-1.23c0.16-1.59,1.25-0.99,1.57-1.44
				c0.53-0.73,0.84-1.87,0.85-2.38c0.03-1.83,0.06-10.04,0-21.29h2.14c0.01,11.14,0.12,19.3,0.2,21.3c0.02,0.6,0.4,1.65,0.92,2.42
				C177.77,40.63,179.14,39.8,179.14,41.59"/>
			<path class="st3" d="M179.14,41.59c0,1.13-1.77,1.14-4.06,1.08c-1.92-0.05-3.51,0.12-3.38-1.23c0.16-1.59,1.25-0.99,1.57-1.44
				c0.53-0.73,0.84-1.87,0.85-2.38c0.03-1.83,0.06-10.04,0-21.29h2.14c0.01,11.14,0.12,19.3,0.2,21.3c0.02,0.6,0.4,1.65,0.92,2.42
				C177.77,40.63,179.14,39.8,179.14,41.59z"/>
			<path class="st13" d="M175.44,50.92c1.03,0,1.83-0.23,2.45-0.43c2.85-0.92,5.99-2.59,7.08-3.18c-0.05-0.72-0.1-1.44-0.14-2.17
				c-2.48-0.58-5.66-1.11-9.39-1.16c-3.65-0.05-6.79,0.37-9.24,0.87c-0.05,0.87-0.1,1.73-0.14,2.6c1.28,0.65,3.82,1.9,6.5,2.89
				C173.24,50.6,174.19,50.93,175.44,50.92"/>
			<path class="st3" d="M175.44,50.92c1.03,0,1.83-0.23,2.45-0.43c2.85-0.92,5.99-2.59,7.08-3.18c-0.05-0.72-0.1-1.44-0.14-2.17
				c-2.48-0.58-5.66-1.11-9.39-1.16c-3.65-0.05-6.79,0.37-9.24,0.87c-0.05,0.87-0.1,1.73-0.14,2.6c1.28,0.65,3.82,1.9,6.5,2.89
				C173.24,50.6,174.19,50.93,175.44,50.92z"/>
			<path class="st14" d="M166.09,46.72c1.57-0.43,3.13-0.66,4.7-0.82c1.57-0.16,3.13-0.25,4.71-0.26c1.57-0.02,3.14,0.05,4.71,0.18
				c1.57,0.13,3.14,0.34,4.71,0.74c-1.57,0.43-3.13,0.66-4.7,0.82c-1.57,0.16-3.14,0.25-4.71,0.26c-1.57,0.01-3.14-0.05-4.71-0.18
				C169.24,47.33,167.67,47.12,166.09,46.72"/>
		</g>
		<g>
			<polyline class="st4" points="217.28,77.7 219.61,80.98 220.31,80.45 219.63,79.5 220.39,78.77 221.13,79.81 221.86,79.25 
				220.02,76.66 220.74,76.11 220.24,75.41 			"/>
			<polyline class="st3" points="217.28,77.7 219.61,80.98 220.31,80.45 219.63,79.5 220.39,78.77 221.13,79.81 221.86,79.25 
				220.02,76.66 220.74,76.11 220.24,75.41 			"/>
			<polyline class="st4" points="217.28,77.7 214.94,74.41 215.63,73.88 216.31,74.83 217.2,74.29 216.46,73.24 217.18,72.68 
				219.03,75.27 219.75,74.72 220.24,75.41 			"/>
			<polyline class="st3" points="217.28,77.7 214.94,74.41 215.63,73.88 216.31,74.83 217.2,74.29 216.46,73.24 217.18,72.68 
				219.03,75.27 219.75,74.72 220.24,75.41 			"/>
			<line class="st4" x1="220.39" y1="78.77" x2="217.2" y2="74.29"/>
			<line class="st3" x1="220.39" y1="78.77" x2="217.2" y2="74.29"/>
			<line class="st4" x1="219.63" y1="79.5" x2="216.31" y2="74.83"/>
			<line class="st3" x1="219.63" y1="79.5" x2="216.31" y2="74.83"/>
			<path class="st2" d="M211.36,45.52c9.12,13.41,18.23,26.83,27.35,40.24c-1.65,1.21-3.29,2.41-4.94,3.62
				c-1.34-1.82-2.68-3.63-4.02-5.45c-0.17-0.26-0.82-1.19-2.08-1.57c-1.53-0.45-2.77,0.25-2.98,0.38
				c-4.65-6.82-9.3-13.64-13.95-20.46c0.22-0.17,1.32-1.03,1.57-2.61c0.2-1.26-0.34-2.3-0.71-2.98c-1.74-3.23-3.77-6.33-4.74-7.78
				C208.36,47.78,209.86,46.65,211.36,45.52"/>
			<path class="st3" d="M211.36,45.52c9.12,13.41,18.23,26.83,27.35,40.24c-1.65,1.21-3.29,2.41-4.94,3.62
				c-1.34-1.82-2.68-3.63-4.02-5.45c-0.17-0.26-0.82-1.19-2.08-1.57c-1.53-0.45-2.77,0.25-2.98,0.38
				c-4.65-6.82-9.3-13.64-13.95-20.46c0.22-0.17,1.32-1.03,1.57-2.61c0.2-1.26-0.34-2.3-0.71-2.98c-1.74-3.23-3.77-6.33-4.74-7.78
				C208.36,47.78,209.86,46.65,211.36,45.52z"/>
			<path class="st5" d="M216.04,69.87l-3.54-5.28c-0.74-1.1-0.44-2.59,0.66-3.33l4.22-2.83c1.1-0.74,2.59-0.44,3.33,0.66l3.54,5.28
				c0.74,1.1,0.44,2.59-0.66,3.33l-4.22,2.83C218.27,71.26,216.78,70.97,216.04,69.87"/>
			<path class="st3" d="M216.04,69.87l-3.54-5.28c-0.74-1.1-0.44-2.59,0.66-3.33l4.22-2.83c1.1-0.74,2.59-0.44,3.33,0.66l3.54,5.28
				c0.74,1.1,0.44,2.59-0.66,3.33l-4.22,2.83C218.27,71.26,216.78,70.97,216.04,69.87z"/>
			<path class="st5" d="M223.02,80.28L219.48,75c-0.74-1.1-0.44-2.59,0.66-3.33l4.22-2.83c1.1-0.74,2.59-0.44,3.33,0.66l3.54,5.28
				c0.74,1.1,0.44,2.59-0.66,3.33l-4.22,2.83C225.25,81.67,223.76,81.38,223.02,80.28"/>
			<path class="st3" d="M223.02,80.28L219.48,75c-0.74-1.1-0.44-2.59,0.66-3.33l4.22-2.83c1.1-0.74,2.59-0.44,3.33,0.66l3.54,5.28
				c0.74,1.1,0.44,2.59-0.66,3.33l-4.22,2.83C225.25,81.67,223.76,81.38,223.02,80.28z"/>
			<polyline class="st4" points="218.58,46.44 215.21,41.34 214.17,42.03 215.14,43.5 214.01,44.46 212.93,42.84 211.85,43.56 
				214.51,47.58 213.43,48.3 214.14,49.38 			"/>
			<polyline class="st3" points="218.58,46.44 215.21,41.34 214.17,42.03 215.14,43.5 214.01,44.46 212.93,42.84 211.85,43.56 
				214.51,47.58 213.43,48.3 214.14,49.38 			"/>
			<polyline class="st4" points="218.58,46.44 221.96,51.54 220.92,52.22 219.95,50.75 218.62,51.42 219.69,53.04 218.6,53.76 
				215.94,49.74 214.86,50.46 214.14,49.38 			"/>
			<polyline class="st3" points="218.58,46.44 221.96,51.54 220.92,52.22 219.95,50.75 218.62,51.42 219.69,53.04 218.6,53.76 
				215.94,49.74 214.86,50.46 214.14,49.38 			"/>
			<line class="st4" x1="214.01" y1="44.46" x2="218.62" y2="51.42"/>
			<line class="st3" x1="214.01" y1="44.46" x2="218.62" y2="51.42"/>
			<line class="st4" x1="215.14" y1="43.5" x2="219.95" y2="50.75"/>
			<line class="st3" x1="215.14" y1="43.5" x2="219.95" y2="50.75"/>
			<polyline class="st4" points="227.55,61.41 225.27,58.08 224.37,58.77 225.03,59.73 224.04,60.65 223.31,59.6 222.37,60.32 
				224.17,62.95 223.24,63.67 223.72,64.37 			"/>
			<polyline class="st3" points="227.55,61.41 225.27,58.08 224.37,58.77 225.03,59.73 224.04,60.65 223.31,59.6 222.37,60.32 
				224.17,62.95 223.24,63.67 223.72,64.37 			"/>
			<polyline class="st4" points="227.55,61.41 229.83,64.74 228.94,65.43 228.28,64.47 227.15,65.2 227.88,66.25 226.94,66.98 
				225.14,64.35 224.21,65.08 223.72,64.37 			"/>
			<polyline class="st3" points="227.55,61.41 229.83,64.74 228.94,65.43 228.28,64.47 227.15,65.2 227.88,66.25 226.94,66.98 
				225.14,64.35 224.21,65.08 223.72,64.37 			"/>
			<line class="st4" x1="224.04" y1="60.65" x2="227.15" y2="65.2"/>
			<line class="st3" x1="224.04" y1="60.65" x2="227.15" y2="65.2"/>
			<line class="st4" x1="225.03" y1="59.73" x2="228.28" y2="64.47"/>
			<line class="st3" x1="225.03" y1="59.73" x2="228.28" y2="64.47"/>
			<path class="st4" d="M236.56,82.59c0.29-0.21,0.59-0.42,0.89-0.63c1.4,2.03,2.8,4.07,4.2,6.11l-5.44,3.99
				c-2.65-0.27-5.31-0.53-7.96-0.8c-0.55-0.69-1.1-1.38-1.65-2.07c1.37-0.88,2.74-1.77,4.1-2.65l2,1.12c1.4-0.96,2.8-1.92,4.19-2.88
				C236.78,84.03,236.67,83.31,236.56,82.59"/>
			<path class="st3" d="M236.56,82.59c0.29-0.21,0.59-0.42,0.89-0.63c1.4,2.03,2.8,4.07,4.2,6.11l-5.44,3.99
				c-2.65-0.27-5.31-0.53-7.96-0.8c-0.55-0.69-1.1-1.38-1.65-2.07c1.37-0.88,2.74-1.77,4.1-2.65l2,1.12c1.4-0.96,2.8-1.92,4.19-2.88
				C236.78,84.03,236.67,83.31,236.56,82.59z"/>
			<path class="st8" d="M235.84,89.01c0.01-0.13,0.12-1.07,0.97-1.64c0.77-0.51,1.57-0.35,1.71-0.32
				c6.2,9.41,12.4,18.83,18.59,28.24c-1.34,0.71-2.68,1.42-4.01,2.13C247.36,107.95,241.6,98.48,235.84,89.01z"/>
		</g>
		<g>
			<polyline class="st4" points="137.25,81.34 135.55,84.99 134.77,84.59 135.26,83.54 134.38,82.96 133.84,84.12 133.02,83.7 
				134.36,80.82 133.55,80.4 133.91,79.63 			"/>
			<polyline class="st3" points="137.25,81.34 135.55,84.99 134.77,84.59 135.26,83.54 134.38,82.96 133.84,84.12 133.02,83.7 
				134.36,80.82 133.55,80.4 133.91,79.63 			"/>
			<polyline class="st4" points="137.25,81.34 138.95,77.68 138.17,77.28 137.68,78.34 136.7,77.97 137.24,76.81 136.43,76.39 
				135.08,79.27 134.27,78.86 133.91,79.63 			"/>
			<polyline class="st3" points="137.25,81.34 138.95,77.68 138.17,77.28 137.68,78.34 136.7,77.97 137.24,76.81 136.43,76.39 
				135.08,79.27 134.27,78.86 133.91,79.63 			"/>
			<line class="st4" x1="134.38" y1="82.96" x2="136.7" y2="77.97"/>
			<line class="st3" x1="134.38" y1="82.96" x2="136.7" y2="77.97"/>
			<line class="st4" x1="135.26" y1="83.54" x2="137.68" y2="78.34"/>
			<line class="st3" x1="135.26" y1="83.54" x2="137.68" y2="78.34"/>
			<path class="st2" d="M137.2,48.62c-6.52,14.85-13.04,29.7-19.56,44.55c1.84,0.89,3.67,1.77,5.51,2.66
				c0.99-2.03,1.98-4.06,2.97-6.09c0.12-0.29,0.58-1.32,1.76-1.93c1.42-0.72,2.77-0.26,3-0.17c3.33-7.55,6.66-15.1,9.99-22.66
				c-0.25-0.12-1.49-0.77-2.02-2.28c-0.43-1.21-0.09-2.32,0.15-3.06c1.12-3.5,2.55-6.91,3.24-8.51
				C140.56,50.29,138.88,49.46,137.2,48.62"/>
			<path class="st3" d="M137.2,48.62c-6.52,14.85-13.04,29.7-19.56,44.55c1.84,0.89,3.67,1.77,5.51,2.66
				c0.99-2.03,1.98-4.06,2.97-6.09c0.12-0.29,0.58-1.32,1.76-1.93c1.42-0.72,2.77-0.26,3-0.17c3.33-7.55,6.66-15.1,9.99-22.66
				c-0.25-0.12-1.49-0.77-2.02-2.28c-0.43-1.21-0.09-2.32,0.15-3.06c1.12-3.5,2.55-6.91,3.24-8.51
				C140.56,50.29,138.88,49.46,137.2,48.62z"/>
			<path class="st5" d="M137.03,73.42l2.52-5.83c0.53-1.22-0.04-2.63-1.25-3.15l-4.66-2.01c-1.22-0.52-2.63,0.04-3.15,1.25
				l-2.52,5.83c-0.53,1.22,0.04,2.63,1.25,3.15l4.66,2.01C135.1,75.19,136.51,74.63,137.03,73.42"/>
			<path class="st3" d="M137.03,73.42l2.52-5.83c0.53-1.22-0.04-2.63-1.25-3.15l-4.66-2.01c-1.22-0.52-2.63,0.04-3.15,1.25
				l-2.52,5.83c-0.53,1.22,0.04,2.63,1.25,3.15l4.66,2.01C135.1,75.19,136.51,74.63,137.03,73.42z"/>
			<path class="st5" d="M132.07,84.92l2.52-5.83c0.52-1.22-0.04-2.63-1.25-3.15l-4.67-2.01c-1.22-0.52-2.63,0.04-3.15,1.25L123,81
				c-0.53,1.22,0.03,2.63,1.25,3.15l4.66,2.01C130.13,86.7,131.54,86.13,132.07,84.92"/>
			<path class="st3" d="M132.07,84.92l2.52-5.83c0.52-1.22-0.04-2.63-1.25-3.15l-4.67-2.01c-1.22-0.52-2.63,0.04-3.15,1.25L123,81
				c-0.53,1.22,0.03,2.63,1.25,3.15l4.66,2.01C130.13,86.7,131.54,86.13,132.07,84.92z"/>
			<polyline class="st4" points="130.27,50.84 132.66,45.21 133.81,45.7 133.12,47.32 134.41,48.06 135.17,46.28 136.37,46.79 
				134.48,51.22 135.68,51.73 135.17,52.92 			"/>
			<polyline class="st3" points="130.27,50.84 132.66,45.21 133.81,45.7 133.12,47.32 134.41,48.06 135.17,46.28 136.37,46.79 
				134.48,51.22 135.68,51.73 135.17,52.92 			"/>
			<polyline class="st4" points="130.27,50.84 127.88,56.47 129.02,56.95 129.71,55.33 131.14,55.75 130.38,57.53 131.58,58.04 
				133.47,53.6 134.67,54.11 135.17,52.92 			"/>
			<polyline class="st3" points="130.27,50.84 127.88,56.47 129.02,56.95 129.71,55.33 131.14,55.75 130.38,57.53 131.58,58.04 
				133.47,53.6 134.67,54.11 135.17,52.92 			"/>
			<line class="st4" x1="134.41" y1="48.06" x2="131.14" y2="55.75"/>
			<line class="st3" x1="134.41" y1="48.06" x2="131.14" y2="55.75"/>
			<line class="st4" x1="133.12" y1="47.32" x2="129.71" y2="55.33"/>
			<line class="st3" x1="133.12" y1="47.32" x2="129.71" y2="55.33"/>
			<polyline class="st4" points="124.18,67.19 125.82,63.5 126.82,64.02 126.35,65.09 127.5,65.81 128.02,64.64 129.07,65.18 
				127.78,68.09 128.83,68.63 128.48,69.41 			"/>
			<polyline class="st3" points="124.18,67.19 125.82,63.5 126.82,64.02 126.35,65.09 127.5,65.81 128.02,64.64 129.07,65.18 
				127.78,68.09 128.83,68.63 128.48,69.41 			"/>
			<polyline class="st4" points="124.18,67.19 122.54,70.88 123.54,71.4 124.02,70.33 125.26,70.84 124.74,72.01 125.79,72.56 
				127.08,69.65 128.13,70.19 128.48,69.41 			"/>
			<polyline class="st3" points="124.18,67.19 122.54,70.88 123.54,71.4 124.02,70.33 125.26,70.84 124.74,72.01 125.79,72.56 
				127.08,69.65 128.13,70.19 128.48,69.41 			"/>
			<line class="st4" x1="127.5" y1="65.81" x2="125.26" y2="70.84"/>
			<line class="st3" x1="127.5" y1="65.81" x2="125.26" y2="70.84"/>
			<line class="st4" x1="126.35" y1="65.09" x2="124.02" y2="70.34"/>
			<line class="st3" x1="126.35" y1="65.09" x2="124.02" y2="70.34"/>
			<path class="st4" d="M119.18,89.66c-0.33-0.15-0.66-0.31-0.99-0.46c-1.01,2.26-2.01,4.51-3.02,6.77
				c2.02,0.98,4.05,1.95,6.07,2.93c2.56-0.75,5.12-1.49,7.68-2.24c0.42-0.78,0.83-1.56,1.25-2.34c-1.51-0.62-3.01-1.24-4.52-1.86
				l-1.76,1.46c-1.55-0.69-3.1-1.38-4.65-2.07C119.22,91.12,119.2,90.39,119.18,89.66"/>
			<path class="st3" d="M119.18,89.66c-0.33-0.15-0.66-0.31-0.99-0.46c-1.01,2.26-2.01,4.51-3.02,6.77
				c2.02,0.98,4.05,1.95,6.07,2.93c2.56-0.75,5.12-1.49,7.68-2.24c0.42-0.78,0.83-1.56,1.25-2.34c-1.51-0.62-3.01-1.24-4.52-1.86
				l-1.76,1.46c-1.55-0.69-3.1-1.38-4.65-2.07C119.22,91.12,119.2,90.39,119.18,89.66z"/>
			<path class="st8" d="M120.79,96.62c-0.04-0.12-0.32-1.02-1.27-1.42c-0.85-0.36-1.61-0.04-1.74,0.02l-8.22,11.13
				c2.54,1.28,5.07,2.56,7.61,3.84C118.37,105.67,119.58,101.14,120.79,96.62z"/>
		</g>
	</g>
	<g>
		<g>
			<polyline class="st15" points="218.38,64.48 233.44,49.42 270.66,49.42 			"/>
			<g>
				<path d="M269.32,49.42l-1.64-2.7l0.09-0.06l4.41,1.75c1.54,0.34,3.07,0.68,4.61,1.01c-1.54,0.34-3.07,0.68-4.61,1.01l-4.41,1.75
					l-0.09-0.05L269.32,49.42z"/>
			</g>
		</g>
	</g>
	<g>
		<g>
			<polyline class="st15" points="225.59,74.89 237.05,63.43 270.66,63.43 			"/>
			<g>
				<path d="M269.32,63.43l-1.64-2.7l0.09-0.06l4.41,1.75c1.54,0.34,3.07,0.68,4.61,1.01c-1.54,0.34-3.07,0.68-4.61,1.01l-4.41,1.75
					l-0.09-0.05L269.32,63.43z"/>
			</g>
		</g>
	</g>
	<g>
		<g>
			<polyline class="st15" points="133.91,68.54 121.37,56 92.76,56 			"/>
			<g>
				<path d="M94.1,56l1.64,2.7l-0.09,0.06l-4.41-1.75c-1.54-0.34-3.07-0.68-4.61-1.01c1.54-0.34,3.07-0.68,4.61-1.01l4.41-1.75
					l0.09,0.05L94.1,56z"/>
			</g>
		</g>
	</g>
	<g>
		<g>
			<polyline class="st15" points="128.79,80.04 117.87,69.13 92.76,69.13 			"/>
			<g>
				<path d="M94.1,69.13l1.64,2.7l-0.09,0.06l-4.41-1.75c-1.54-0.34-3.07-0.68-4.61-1.01c1.54-0.34,3.07-0.68,4.61-1.01l4.41-1.75
					l0.09,0.05L94.1,69.13z"/>
			</g>
		</g>
	</g>
	<g>
		<g>
			<polyline class="st15" points="174.99,120.74 191.23,136.98 232.6,136.98 			"/>
			<g>
				<path d="M231.25,136.98l-1.64-2.7l0.09-0.06l4.41,1.75c1.54,0.34,3.07,0.68,4.61,1.01c-1.54,0.34-3.07,0.68-4.61,1.01
					l-4.41,1.75l-0.09-0.05L231.25,136.98z"/>
			</g>
		</g>
	</g>
	<g>
		<g>
			<polyline class="st15" points="200.7,70.84 229.23,42.31 270.66,42.31 			"/>
			<g>
				<path d="M269.32,42.31l-1.64-2.7l0.09-0.06l4.41,1.75c1.54,0.34,3.07,0.68,4.61,1.01c-1.54,0.34-3.07,0.68-4.61,1.01l-4.41,1.75
					l-0.09-0.05L269.32,42.31z"/>
			</g>
		</g>
	</g>
	<g>
		<g>
			<polyline class="st15" points="150.45,70.93 126.74,47.22 92.76,47.22 			"/>
			<g>
				<path d="M94.1,47.22l1.64,2.7l-0.09,0.06l-4.41-1.75c-1.54-0.34-3.07-0.68-4.61-1.01c1.54-0.34,3.07-0.68,4.61-1.01l4.41-1.75
					l0.09,0.05L94.1,47.22z"/>
			</g>
		</g>
	</g>
	<text transform="matrix(1 0 0 1 279.4429 43.8455)" class="st16 st17">Left Shoulder Roll. ID 5</text>
	<text transform="matrix(1 0 0 1 279.4435 52.5563)" class="st16 st17">Left Shoulder Pitch. ID 6 </text>
	<text transform="matrix(1 0 0 1 279.4428 65.9298)" class="st16 st17">Left Elbow Pitch. ID 7</text>
	<text transform="matrix(1 0 0 1 0.1148 49.0203)" class="st16 st17">Right Shoulder Roll. ID 2</text>
	<text transform="matrix(1 0 0 1 0.1146 58.7446)" class="st16 st17">Right Shoulder Pitch. ID 3</text>
	<text transform="matrix(1 0 0 1 0.1147 70.9331)" class="st16 st17">Right Elbow Pitch. ID 4</text>
	<text transform="matrix(1 0 0 1 239.7219 139.6429)" class="st16 st17">Neck. ID 1 </text>
</g>
</svg>
