<?xml version="1.0" encoding="utf-8"?>
<!-- Generator: Adobe Illustrator 24.0.2, SVG Export Plug-In . SVG Version: 6.00 Build 0)  -->
<svg version="1.1" id="Capa_1" xmlns="http://www.w3.org/2000/svg" xmlns:xlink="http://www.w3.org/1999/xlink" x="0px" y="0px"
	 viewBox="0 0 405.92 411.87" style="enable-background:new 0 0 405.92 411.87;" xml:space="preserve">
<style type="text/css">
	.st0{fill:#333333;}
	.st1{fill:#FFFFFF;stroke:#1E1E1C;stroke-miterlimit:10;}
	.st2{fill:#FFFFFF;stroke:#FFFFFF;stroke-width:2;stroke-miterlimit:10;}
	.st3{fill:none;stroke:#FFFFFF;stroke-width:2;stroke-miterlimit:10;}
	.st4{fill:#F1BF0F;}
	.st5{fill:#A21C18;}
	.st6{fill:#FFFFFF;}
	.st7{font-family:'MyriadPro-Regular';}
	.st8{font-size:10.1821px;}
	.st9{font-size:16px;}
	.st10{fill:none;stroke:#000000;stroke-width:4.7553;stroke-miterlimit:10;}
	.st11{fill:none;stroke:#FFFFFF;stroke-width:4.7553;stroke-miterlimit:10;}
	.st12{fill:#293282;}
	.st13{fill:#333333;stroke:#000000;stroke-miterlimit:10;}
	.st14{fill:#FFFFFF;stroke:#000000;stroke-width:0.5;stroke-miterlimit:10;}
</style>
<g>
	<g>
		<path class="st0" d="M364.45,368.09H41.47c-7.35,0-13.3-5.96-13.3-13.3V227.09c0-7.35,5.96-13.3,13.3-13.3h322.98
			c7.35,0,13.3,5.96,13.3,13.3v127.69C377.75,362.13,371.8,368.09,364.45,368.09z"/>
		<g>
			<circle class="st1" cx="47.67" cy="233.73" r="6.79"/>
			<circle class="st1" cx="351.05" cy="233.73" r="6.79"/>
			<circle class="st1" cx="48.95" cy="348.15" r="6.79"/>
			<circle class="st1" cx="352.33" cy="348.15" r="6.79"/>
			<line class="st2" x1="305.2" y1="327.82" x2="311.51" y2="327.92"/>
			<line class="st2" x1="304.96" y1="341.9" x2="311.27" y2="342.01"/>
			<line class="st2" x1="304.96" y1="355.99" x2="311.27" y2="356.09"/>
			<line class="st2" x1="318.56" y1="327.82" x2="324.88" y2="327.92"/>
			<line class="st2" x1="318.32" y1="342.12" x2="324.64" y2="342.23"/>
			<line class="st2" x1="318.56" y1="355.99" x2="324.88" y2="356.09"/>
			<line class="st3" x1="312.05" y1="260.54" x2="318.28" y2="260.54"/>
			<line class="st2" x1="325.48" y1="260.49" x2="331.79" y2="260.59"/>
			<g>
				<g>
					<circle class="st4" cx="71.42" cy="226.07" r="4.05"/>
					<circle class="st5" cx="71.42" cy="226.07" r="3.19"/>
					<circle class="st6" cx="71.42" cy="226.07" r="2.47"/>
				</g>
				<g>
					<circle class="st4" cx="84.95" cy="226.07" r="4.05"/>
					<circle class="st5" cx="84.95" cy="226.07" r="3.19"/>
					<circle class="st6" cx="84.95" cy="226.07" r="2.47"/>
				</g>
				<g>
					<circle class="st4" cx="98.49" cy="226.07" r="4.05"/>
					<circle class="st5" cx="98.49" cy="226.07" r="3.19"/>
					<circle class="st6" cx="98.49" cy="226.07" r="2.47"/>
				</g>
				<g>
					<circle class="st4" cx="112.02" cy="226.07" r="4.05"/>
					<circle class="st5" cx="112.02" cy="226.07" r="3.19"/>
					<circle class="st6" cx="112.02" cy="226.07" r="2.47"/>
				</g>
				<g>
					<circle class="st4" cx="125.56" cy="226.07" r="4.05"/>
					<circle class="st5" cx="125.56" cy="226.07" r="3.19"/>
					<circle class="st6" cx="125.56" cy="226.07" r="2.47"/>
				</g>
				<g>
					<circle class="st4" cx="139.09" cy="226.07" r="4.05"/>
					<circle class="st5" cx="139.09" cy="226.07" r="3.19"/>
					<circle class="st6" cx="139.09" cy="226.07" r="2.47"/>
				</g>
				<g>
					<circle class="st4" cx="152.63" cy="226.07" r="4.05"/>
					<circle class="st5" cx="152.63" cy="226.07" r="3.19"/>
					<circle class="st6" cx="152.63" cy="226.07" r="2.47"/>
				</g>
				<g>
					<circle class="st4" cx="166.16" cy="226.07" r="4.05"/>
					<circle class="st5" cx="166.16" cy="226.07" r="3.19"/>
					<circle class="st6" cx="166.16" cy="226.07" r="2.47"/>
				</g>
				<g>
					<circle class="st4" cx="179.7" cy="226.07" r="4.05"/>
					<circle class="st5" cx="179.7" cy="226.07" r="3.19"/>
					<circle class="st6" cx="179.7" cy="226.07" r="2.47"/>
				</g>
				<g>
					<circle class="st4" cx="193.23" cy="226.07" r="4.05"/>
					<circle class="st5" cx="193.23" cy="226.07" r="3.19"/>
					<circle class="st6" cx="193.23" cy="226.07" r="2.47"/>
				</g>
				<g>
					<circle class="st4" cx="206.77" cy="226.07" r="4.05"/>
					<circle class="st5" cx="206.77" cy="226.07" r="3.19"/>
					<circle class="st6" cx="206.77" cy="226.07" r="2.47"/>
				</g>
				<g>
					<circle class="st4" cx="220.3" cy="226.07" r="4.05"/>
					<circle class="st5" cx="220.3" cy="226.07" r="3.19"/>
					<circle class="st6" cx="220.3" cy="226.07" r="2.47"/>
				</g>
				<g>
					<circle class="st4" cx="233.84" cy="226.07" r="4.05"/>
					<circle class="st5" cx="233.84" cy="226.07" r="3.19"/>
					<circle class="st6" cx="233.84" cy="226.07" r="2.47"/>
				</g>
				<g>
					<circle class="st4" cx="247.37" cy="226.07" r="4.05"/>
					<circle class="st5" cx="247.37" cy="226.07" r="3.19"/>
					<circle class="st6" cx="247.37" cy="226.07" r="2.47"/>
				</g>
				<g>
					<circle class="st4" cx="260.9" cy="226.07" r="4.05"/>
					<circle class="st5" cx="260.9" cy="226.07" r="3.19"/>
					<circle class="st6" cx="260.9" cy="226.07" r="2.47"/>
				</g>
				<g>
					<circle class="st4" cx="274.44" cy="226.07" r="4.05"/>
					<circle class="st5" cx="274.44" cy="226.07" r="3.19"/>
					<circle class="st6" cx="274.44" cy="226.07" r="2.47"/>
				</g>
				<g>
					<circle class="st4" cx="287.97" cy="226.07" r="4.05"/>
					<circle class="st5" cx="287.97" cy="226.07" r="3.19"/>
					<circle class="st6" cx="287.97" cy="226.07" r="2.47"/>
				</g>
				<g>
					<circle class="st4" cx="301.51" cy="226.07" r="4.05"/>
					<circle class="st5" cx="301.51" cy="226.07" r="3.19"/>
					<circle class="st6" cx="301.51" cy="226.07" r="2.47"/>
				</g>
				<g>
					<circle class="st4" cx="315.04" cy="226.07" r="4.05"/>
					<circle class="st5" cx="315.04" cy="226.07" r="3.19"/>
					<circle class="st6" cx="315.04" cy="226.07" r="2.47"/>
				</g>
				<g>
					<circle class="st4" cx="328.58" cy="226.07" r="4.05"/>
					<circle class="st5" cx="328.58" cy="226.07" r="3.19"/>
					<circle class="st6" cx="328.58" cy="226.07" r="2.47"/>
				</g>
				<g>
					<circle class="st4" cx="71.42" cy="237.98" r="4.05"/>
					<circle class="st5" cx="71.42" cy="237.98" r="3.19"/>
					<circle class="st6" cx="71.42" cy="237.98" r="2.47"/>
				</g>
				<g>
					<circle class="st4" cx="84.95" cy="237.98" r="4.05"/>
					<circle class="st5" cx="84.95" cy="237.98" r="3.19"/>
					<circle class="st6" cx="84.95" cy="237.98" r="2.47"/>
				</g>
				<g>
					<circle class="st4" cx="98.49" cy="237.98" r="4.05"/>
					<circle class="st5" cx="98.49" cy="237.98" r="3.19"/>
					<circle class="st6" cx="98.49" cy="237.98" r="2.47"/>
				</g>
				<g>
					<circle class="st4" cx="112.02" cy="237.98" r="4.05"/>
					<circle class="st5" cx="112.02" cy="237.98" r="3.19"/>
					<circle class="st6" cx="112.02" cy="237.98" r="2.47"/>
				</g>
				<g>
					<circle class="st4" cx="125.56" cy="237.98" r="4.05"/>
					<circle class="st5" cx="125.56" cy="237.98" r="3.19"/>
					<circle class="st6" cx="125.56" cy="237.98" r="2.47"/>
				</g>
				<g>
					<circle class="st4" cx="139.09" cy="237.98" r="4.05"/>
					<circle class="st5" cx="139.09" cy="237.98" r="3.19"/>
					<circle class="st6" cx="139.09" cy="237.98" r="2.47"/>
				</g>
				<g>
					<circle class="st4" cx="152.63" cy="237.98" r="4.05"/>
					<circle class="st5" cx="152.63" cy="237.98" r="3.19"/>
					<circle class="st6" cx="152.63" cy="237.98" r="2.47"/>
				</g>
				<g>
					<circle class="st4" cx="166.16" cy="237.98" r="4.05"/>
					<circle class="st5" cx="166.16" cy="237.98" r="3.19"/>
					<circle class="st6" cx="166.16" cy="237.98" r="2.47"/>
				</g>
				<g>
					<circle class="st4" cx="179.7" cy="237.98" r="4.05"/>
					<circle class="st5" cx="179.7" cy="237.98" r="3.19"/>
					<circle class="st6" cx="179.7" cy="237.98" r="2.47"/>
				</g>
				<g>
					<circle class="st4" cx="193.23" cy="237.98" r="4.05"/>
					<circle class="st5" cx="193.23" cy="237.98" r="3.19"/>
					<circle class="st6" cx="193.23" cy="237.98" r="2.47"/>
				</g>
				<g>
					<circle class="st4" cx="206.77" cy="237.98" r="4.05"/>
					<circle class="st5" cx="206.77" cy="237.98" r="3.19"/>
					<circle class="st6" cx="206.77" cy="237.98" r="2.47"/>
				</g>
				<g>
					<circle class="st4" cx="220.3" cy="237.98" r="4.05"/>
					<circle class="st5" cx="220.3" cy="237.98" r="3.19"/>
					<circle class="st6" cx="220.3" cy="237.98" r="2.47"/>
				</g>
				<g>
					<circle class="st4" cx="233.84" cy="237.98" r="4.05"/>
					<circle class="st5" cx="233.84" cy="237.98" r="3.19"/>
					<circle class="st6" cx="233.84" cy="237.98" r="2.47"/>
				</g>
				<g>
					<circle class="st4" cx="247.37" cy="237.98" r="4.05"/>
					<circle class="st5" cx="247.37" cy="237.98" r="3.19"/>
					<circle class="st6" cx="247.37" cy="237.98" r="2.47"/>
				</g>
				<g>
					<circle class="st4" cx="260.9" cy="237.98" r="4.05"/>
					<circle class="st5" cx="260.9" cy="237.98" r="3.19"/>
					<circle class="st6" cx="260.9" cy="237.98" r="2.47"/>
				</g>
				<g>
					<circle class="st4" cx="274.44" cy="237.98" r="4.05"/>
					<circle class="st5" cx="274.44" cy="237.98" r="3.19"/>
					<circle class="st6" cx="274.44" cy="237.98" r="2.47"/>
				</g>
				<g>
					<circle class="st4" cx="287.97" cy="237.98" r="4.05"/>
					<circle class="st5" cx="287.97" cy="237.98" r="3.19"/>
					<circle class="st6" cx="287.97" cy="237.98" r="2.47"/>
				</g>
				<g>
					<circle class="st4" cx="301.51" cy="237.98" r="4.05"/>
					<circle class="st5" cx="301.51" cy="237.98" r="3.19"/>
					<circle class="st6" cx="301.51" cy="237.98" r="2.47"/>
				</g>
				<g>
					<circle class="st4" cx="315.04" cy="237.98" r="4.05"/>
					<circle class="st5" cx="315.04" cy="237.98" r="3.19"/>
					<circle class="st6" cx="315.04" cy="237.98" r="2.47"/>
				</g>
				<g>
					<circle class="st4" cx="328.58" cy="237.98" r="4.05"/>
					<circle class="st5" cx="328.58" cy="237.98" r="3.19"/>
					<circle class="st6" cx="328.58" cy="237.98" r="2.47"/>
				</g>
			</g>
			<g>
				<g>
					<circle class="st4" cx="37.59" cy="260.36" r="4.05"/>
					<circle class="st5" cx="37.59" cy="260.36" r="3.19"/>
					<circle class="st6" cx="37.59" cy="260.36" r="2.47"/>
				</g>
				<g>
					<circle class="st4" cx="51.13" cy="260.36" r="4.05"/>
					<circle class="st5" cx="51.13" cy="260.36" r="3.19"/>
					<circle class="st6" cx="51.13" cy="260.36" r="2.47"/>
				</g>
				<g>
					<circle class="st4" cx="64.66" cy="260.36" r="4.05"/>
					<circle class="st5" cx="64.66" cy="260.36" r="3.19"/>
					<circle class="st6" cx="64.66" cy="260.36" r="2.47"/>
				</g>
				<g>
					<circle class="st4" cx="78.19" cy="260.36" r="4.05"/>
					<circle class="st5" cx="78.19" cy="260.36" r="3.19"/>
					<circle class="st6" cx="78.19" cy="260.36" r="2.47"/>
				</g>
				<g>
					<circle class="st4" cx="91.73" cy="260.36" r="4.05"/>
					<circle class="st5" cx="91.73" cy="260.36" r="3.19"/>
					<circle class="st6" cx="91.73" cy="260.36" r="2.47"/>
				</g>
				<g>
					<circle class="st4" cx="105.26" cy="260.36" r="4.05"/>
					<circle class="st5" cx="105.26" cy="260.36" r="3.19"/>
					<circle class="st6" cx="105.26" cy="260.36" r="2.47"/>
				</g>
				<g>
					<circle class="st4" cx="118.79" cy="260.36" r="4.05"/>
					<circle class="st5" cx="118.79" cy="260.36" r="3.19"/>
					<circle class="st6" cx="118.79" cy="260.36" r="2.47"/>
				</g>
				<g>
					<circle class="st4" cx="132.33" cy="260.36" r="4.05"/>
					<circle class="st5" cx="132.33" cy="260.36" r="3.19"/>
					<circle class="st6" cx="132.33" cy="260.36" r="2.47"/>
				</g>
				<g>
					<circle class="st4" cx="145.86" cy="260.36" r="4.05"/>
					<circle class="st5" cx="145.86" cy="260.36" r="3.19"/>
					<circle class="st6" cx="145.86" cy="260.36" r="2.47"/>
				</g>
				<g>
					<circle class="st4" cx="159.4" cy="260.36" r="4.05"/>
					<circle class="st5" cx="159.4" cy="260.36" r="3.19"/>
					<circle class="st6" cx="159.4" cy="260.36" r="2.47"/>
				</g>
				<g>
					<circle class="st4" cx="172.93" cy="260.36" r="4.05"/>
					<circle class="st5" cx="172.93" cy="260.36" r="3.19"/>
					<circle class="st6" cx="172.93" cy="260.36" r="2.47"/>
				</g>
				<g>
					<circle class="st4" cx="186.46" cy="260.36" r="4.05"/>
					<circle class="st5" cx="186.46" cy="260.36" r="3.19"/>
					<circle class="st6" cx="186.46" cy="260.36" r="2.47"/>
				</g>
				<g>
					<circle class="st4" cx="200" cy="260.36" r="4.05"/>
					<circle class="st5" cx="200" cy="260.36" r="3.19"/>
					<circle class="st6" cx="200" cy="260.36" r="2.47"/>
				</g>
				<g>
					<circle class="st4" cx="213.53" cy="260.36" r="4.05"/>
					<circle class="st5" cx="213.53" cy="260.36" r="3.19"/>
					<circle class="st6" cx="213.53" cy="260.36" r="2.47"/>
				</g>
				<g>
					<circle class="st4" cx="227.07" cy="260.36" r="4.05"/>
					<circle class="st5" cx="227.07" cy="260.36" r="3.19"/>
					<circle class="st6" cx="227.07" cy="260.36" r="2.47"/>
				</g>
				<g>
					<circle class="st4" cx="240.6" cy="260.36" r="4.05"/>
					<circle class="st5" cx="240.6" cy="260.36" r="3.19"/>
					<circle class="st6" cx="240.6" cy="260.36" r="2.47"/>
				</g>
				<g>
					<circle class="st4" cx="254.13" cy="260.36" r="4.05"/>
					<circle class="st5" cx="254.13" cy="260.36" r="3.19"/>
					<circle class="st6" cx="254.13" cy="260.36" r="2.47"/>
				</g>
				<g>
					<circle class="st4" cx="267.67" cy="260.36" r="4.05"/>
					<circle class="st5" cx="267.67" cy="260.36" r="3.19"/>
					<circle class="st6" cx="267.67" cy="260.36" r="2.47"/>
				</g>
				<g>
					<circle class="st4" cx="281.2" cy="260.36" r="4.05"/>
					<circle class="st5" cx="281.2" cy="260.36" r="3.19"/>
					<circle class="st6" cx="281.2" cy="260.36" r="2.47"/>
				</g>
				<g>
					<circle class="st4" cx="294.74" cy="260.36" r="4.05"/>
					<circle class="st5" cx="294.74" cy="260.36" r="3.19"/>
					<circle class="st6" cx="294.74" cy="260.36" r="2.47"/>
				</g>
				<g>
					<circle class="st4" cx="308.27" cy="260.36" r="4.05"/>
					<circle class="st5" cx="308.27" cy="260.36" r="3.19"/>
					<circle class="st6" cx="308.27" cy="260.36" r="2.47"/>
				</g>
				<g>
					<circle class="st4" cx="321.8" cy="260.36" r="4.05"/>
					<circle class="st5" cx="321.8" cy="260.36" r="3.19"/>
					<circle class="st6" cx="321.8" cy="260.36" r="2.47"/>
				</g>
				<g>
					<circle class="st4" cx="335.34" cy="260.36" r="4.05"/>
					<circle class="st5" cx="335.34" cy="260.36" r="3.19"/>
					<circle class="st6" cx="335.34" cy="260.36" r="2.47"/>
				</g>
				<g>
					<circle class="st4" cx="348.87" cy="260.36" r="4.05"/>
					<circle class="st5" cx="348.87" cy="260.36" r="3.19"/>
					<circle class="st6" cx="348.87" cy="260.36" r="2.47"/>
				</g>
				<g>
					<circle class="st4" cx="362.4" cy="260.36" r="4.05"/>
					<circle class="st5" cx="362.4" cy="260.36" r="3.19"/>
					<circle class="st6" cx="362.4" cy="260.36" r="2.47"/>
				</g>
			</g>
			<g>
				<g>
					<g>
						<circle class="st4" cx="40.42" cy="289.62" r="4.05"/>
						<circle class="st5" cx="40.42" cy="289.62" r="3.19"/>
						<circle class="st6" cx="40.42" cy="289.62" r="2.47"/>
					</g>
					<g>
						<circle class="st4" cx="53.95" cy="289.62" r="4.05"/>
						<circle class="st5" cx="53.95" cy="289.62" r="3.19"/>
						<circle class="st6" cx="53.95" cy="289.62" r="2.47"/>
					</g>
					<g>
						<circle class="st4" cx="67.49" cy="289.62" r="4.05"/>
						<circle class="st5" cx="67.49" cy="289.62" r="3.19"/>
						<circle class="st6" cx="67.49" cy="289.62" r="2.47"/>
					</g>
					<g>
						<circle class="st4" cx="81.02" cy="289.62" r="4.05"/>
						<circle class="st5" cx="81.02" cy="289.62" r="3.19"/>
						<circle class="st6" cx="81.02" cy="289.62" r="2.47"/>
					</g>
					<g>
						<circle class="st4" cx="94.56" cy="289.62" r="4.05"/>
						<circle class="st5" cx="94.56" cy="289.62" r="3.19"/>
						<circle class="st6" cx="94.56" cy="289.62" r="2.47"/>
					</g>
					<g>
						<circle class="st4" cx="108.09" cy="289.62" r="4.05"/>
						<circle class="st5" cx="108.09" cy="289.62" r="3.19"/>
						<circle class="st6" cx="108.09" cy="289.62" r="2.47"/>
					</g>
					<g>
						<circle class="st4" cx="121.62" cy="289.62" r="4.05"/>
						<circle class="st5" cx="121.62" cy="289.62" r="3.19"/>
						<circle class="st6" cx="121.62" cy="289.62" r="2.47"/>
					</g>
					<g>
						<circle class="st4" cx="135.16" cy="289.62" r="4.05"/>
						<circle class="st5" cx="135.16" cy="289.62" r="3.19"/>
						<circle class="st6" cx="135.16" cy="289.62" r="2.47"/>
					</g>
					<g>
						<circle class="st4" cx="148.69" cy="289.62" r="4.05"/>
						<circle class="st5" cx="148.69" cy="289.62" r="3.19"/>
						<circle class="st6" cx="148.69" cy="289.62" r="2.47"/>
					</g>
					<g>
						<circle class="st4" cx="162.22" cy="289.62" r="4.05"/>
						<circle class="st5" cx="162.22" cy="289.62" r="3.19"/>
						<circle class="st6" cx="162.22" cy="289.62" r="2.47"/>
					</g>
					<g>
						<circle class="st4" cx="175.76" cy="289.62" r="4.05"/>
						<circle class="st5" cx="175.76" cy="289.62" r="3.19"/>
						<circle class="st6" cx="175.76" cy="289.62" r="2.47"/>
					</g>
				</g>
				<g>
					<g>
						<circle class="st4" cx="224.24" cy="289.62" r="4.05"/>
						<circle class="st5" cx="224.24" cy="289.62" r="3.19"/>
						<circle class="st6" cx="224.24" cy="289.62" r="2.47"/>
					</g>
					<g>
						<circle class="st4" cx="237.77" cy="289.62" r="4.05"/>
						<circle class="st5" cx="237.77" cy="289.62" r="3.19"/>
						<circle class="st6" cx="237.77" cy="289.62" r="2.47"/>
					</g>
					<g>
						<circle class="st4" cx="251.31" cy="289.62" r="4.05"/>
						<circle class="st5" cx="251.31" cy="289.62" r="3.19"/>
						<circle class="st6" cx="251.31" cy="289.62" r="2.47"/>
					</g>
					<g>
						<circle class="st4" cx="264.84" cy="289.62" r="4.05"/>
						<circle class="st5" cx="264.84" cy="289.62" r="3.19"/>
						<circle class="st6" cx="264.84" cy="289.62" r="2.47"/>
					</g>
					<g>
						<circle class="st4" cx="278.37" cy="289.62" r="4.05"/>
						<circle class="st5" cx="278.37" cy="289.62" r="3.19"/>
						<circle class="st6" cx="278.37" cy="289.62" r="2.47"/>
					</g>
					<g>
						<circle class="st4" cx="291.91" cy="289.62" r="4.05"/>
						<circle class="st5" cx="291.91" cy="289.62" r="3.19"/>
						<circle class="st6" cx="291.91" cy="289.62" r="2.47"/>
					</g>
					<g>
						<circle class="st4" cx="305.44" cy="289.62" r="4.05"/>
						<circle class="st5" cx="305.44" cy="289.62" r="3.19"/>
						<circle class="st6" cx="305.44" cy="289.62" r="2.47"/>
					</g>
					<g>
						<circle class="st4" cx="318.97" cy="289.62" r="4.05"/>
						<circle class="st5" cx="318.97" cy="289.62" r="3.19"/>
						<circle class="st6" cx="318.97" cy="289.62" r="2.47"/>
					</g>
					<g>
						<circle class="st4" cx="332.51" cy="289.62" r="4.05"/>
						<circle class="st5" cx="332.51" cy="289.62" r="3.19"/>
						<circle class="st6" cx="332.51" cy="289.62" r="2.47"/>
					</g>
					<g>
						<circle class="st4" cx="346.04" cy="289.62" r="4.05"/>
						<circle class="st5" cx="346.04" cy="289.62" r="3.19"/>
						<circle class="st6" cx="346.04" cy="289.62" r="2.47"/>
					</g>
					<g>
						<circle class="st4" cx="359.58" cy="289.62" r="4.05"/>
						<circle class="st5" cx="359.58" cy="289.62" r="3.19"/>
						<circle class="st6" cx="359.58" cy="289.62" r="2.47"/>
					</g>
				</g>
			</g>
			<g>
				<g>
					<g>
						<circle class="st4" cx="129.28" cy="327.64" r="4.05"/>
						<circle class="st5" cx="129.28" cy="327.64" r="3.19"/>
						<circle class="st6" cx="129.28" cy="327.64" r="2.47"/>
					</g>
					<g>
						<circle class="st4" cx="142.81" cy="327.64" r="4.05"/>
						<circle class="st5" cx="142.81" cy="327.64" r="3.19"/>
						<circle class="st6" cx="142.81" cy="327.64" r="2.47"/>
					</g>
					<g>
						<circle class="st4" cx="156.35" cy="327.64" r="4.05"/>
						<circle class="st5" cx="156.35" cy="327.64" r="3.19"/>
						<circle class="st6" cx="156.35" cy="327.64" r="2.47"/>
					</g>
					<g>
						<circle class="st4" cx="169.88" cy="327.64" r="4.05"/>
						<circle class="st5" cx="169.88" cy="327.64" r="3.19"/>
						<circle class="st6" cx="169.88" cy="327.64" r="2.47"/>
					</g>
				</g>
				<g>
					<g>
						<circle class="st4" cx="129.28" cy="341.73" r="4.05"/>
						<circle class="st5" cx="129.28" cy="341.73" r="3.19"/>
						<circle class="st6" cx="129.28" cy="341.73" r="2.47"/>
					</g>
					<g>
						<circle class="st4" cx="142.81" cy="341.73" r="4.05"/>
						<circle class="st5" cx="142.81" cy="341.73" r="3.19"/>
						<circle class="st6" cx="142.81" cy="341.73" r="2.47"/>
					</g>
					<g>
						<circle class="st4" cx="156.35" cy="341.73" r="4.05"/>
						<circle class="st5" cx="156.35" cy="341.73" r="3.19"/>
						<circle class="st6" cx="156.35" cy="341.73" r="2.47"/>
					</g>
					<g>
						<circle class="st4" cx="169.88" cy="341.73" r="4.05"/>
						<circle class="st5" cx="169.88" cy="341.73" r="3.19"/>
						<circle class="st6" cx="169.88" cy="341.73" r="2.47"/>
					</g>
				</g>
				<g>
					<g>
						<circle class="st4" cx="129.28" cy="355.81" r="4.05"/>
						<circle class="st5" cx="129.28" cy="355.81" r="3.19"/>
						<circle class="st6" cx="129.28" cy="355.81" r="2.47"/>
					</g>
					<g>
						<circle class="st4" cx="142.81" cy="355.81" r="4.05"/>
						<circle class="st5" cx="142.81" cy="355.81" r="3.19"/>
						<circle class="st6" cx="142.81" cy="355.81" r="2.47"/>
					</g>
					<g>
						<circle class="st4" cx="156.35" cy="355.81" r="4.05"/>
						<circle class="st5" cx="156.35" cy="355.81" r="3.19"/>
						<circle class="st6" cx="156.35" cy="355.81" r="2.47"/>
					</g>
					<g>
						<circle class="st4" cx="169.88" cy="355.81" r="4.05"/>
						<circle class="st5" cx="169.88" cy="355.81" r="3.19"/>
						<circle class="st6" cx="169.88" cy="355.81" r="2.47"/>
					</g>
				</g>
			</g>
			<g>
				<g>
					<g>
						<circle class="st4" cx="287.97" cy="327.64" r="4.05"/>
						<circle class="st5" cx="287.97" cy="327.64" r="3.19"/>
						<circle class="st6" cx="287.97" cy="327.64" r="2.47"/>
					</g>
					<g>
						<circle class="st4" cx="301.5" cy="327.64" r="4.05"/>
						<circle class="st5" cx="301.5" cy="327.64" r="3.19"/>
						<circle class="st6" cx="301.5" cy="327.64" r="2.47"/>
					</g>
					<g>
						<circle class="st4" cx="315.04" cy="327.64" r="4.05"/>
						<circle class="st5" cx="315.04" cy="327.64" r="3.19"/>
						<circle class="st6" cx="315.04" cy="327.64" r="2.47"/>
					</g>
					<g>
						<circle class="st4" cx="328.57" cy="327.64" r="4.05"/>
						<circle class="st5" cx="328.57" cy="327.64" r="3.19"/>
						<circle class="st6" cx="328.57" cy="327.64" r="2.47"/>
					</g>
				</g>
				<g>
					<g>
						<circle class="st4" cx="287.97" cy="341.73" r="4.05"/>
						<circle class="st5" cx="287.97" cy="341.73" r="3.19"/>
						<circle class="st6" cx="287.97" cy="341.73" r="2.47"/>
					</g>
					<g>
						<circle class="st4" cx="301.5" cy="341.73" r="4.05"/>
						<circle class="st5" cx="301.5" cy="341.73" r="3.19"/>
						<circle class="st6" cx="301.5" cy="341.73" r="2.47"/>
					</g>
					<g>
						<circle class="st4" cx="315.04" cy="341.73" r="4.05"/>
						<circle class="st5" cx="315.04" cy="341.73" r="3.19"/>
						<circle class="st6" cx="315.04" cy="341.73" r="2.47"/>
					</g>
					<g>
						<circle class="st4" cx="328.57" cy="341.73" r="4.05"/>
						<circle class="st5" cx="328.57" cy="341.73" r="3.19"/>
						<circle class="st6" cx="328.57" cy="341.73" r="2.47"/>
					</g>
				</g>
				<g>
					<g>
						<circle class="st4" cx="287.97" cy="355.81" r="4.05"/>
						<circle class="st5" cx="287.97" cy="355.81" r="3.19"/>
						<circle class="st6" cx="287.97" cy="355.81" r="2.47"/>
					</g>
					<g>
						<circle class="st4" cx="301.5" cy="355.81" r="4.05"/>
						<circle class="st5" cx="301.5" cy="355.81" r="3.19"/>
						<circle class="st6" cx="301.5" cy="355.81" r="2.47"/>
					</g>
					<g>
						<circle class="st4" cx="315.04" cy="355.81" r="4.05"/>
						<circle class="st5" cx="315.04" cy="355.81" r="3.19"/>
						<circle class="st6" cx="315.04" cy="355.81" r="2.47"/>
					</g>
					<g>
						<circle class="st4" cx="328.57" cy="355.81" r="4.05"/>
						<circle class="st5" cx="328.57" cy="355.81" r="3.19"/>
						<circle class="st6" cx="328.57" cy="355.81" r="2.47"/>
					</g>
				</g>
			</g>
			<line class="st2" x1="33.54" y1="297.48" x2="366.45" y2="297.48"/>
			<line class="st3" x1="146.43" y1="327.64" x2="152.66" y2="327.64"/>
			<line class="st2" x1="132.67" y1="327.59" x2="138.99" y2="327.69"/>
			<line class="st2" x1="159.85" y1="327.59" x2="166.17" y2="327.69"/>
			<line class="st2" x1="132.67" y1="341.67" x2="138.99" y2="341.78"/>
			<line class="st2" x1="146.43" y1="341.73" x2="152.74" y2="341.83"/>
			<line class="st2" x1="159.61" y1="341.95" x2="165.93" y2="342.05"/>
			<line class="st2" x1="132.67" y1="355.76" x2="138.99" y2="355.86"/>
			<line class="st2" x1="146.43" y1="355.99" x2="152.74" y2="356.09"/>
			<line class="st2" x1="159.85" y1="356.21" x2="166.17" y2="356.32"/>
			<line class="st2" x1="291.42" y1="327.59" x2="297.73" y2="327.69"/>
			<line class="st2" x1="291.42" y1="341.67" x2="297.73" y2="341.78"/>
			<line class="st2" x1="291.42" y1="355.76" x2="297.73" y2="355.86"/>
			<line class="st3" x1="203.78" y1="260.36" x2="210" y2="260.36"/>
			<line class="st2" x1="190.02" y1="260.31" x2="196.33" y2="260.41"/>
			<line class="st2" x1="217.2" y1="260.31" x2="223.51" y2="260.41"/>
			<line class="st2" x1="298.3" y1="260.49" x2="304.61" y2="260.59"/>
			<g>
				<g>
					<g>
						<circle class="st4" cx="40.42" cy="305.34" r="4.05"/>
						<circle class="st5" cx="40.42" cy="305.34" r="3.19"/>
						<circle class="st6" cx="40.42" cy="305.34" r="2.47"/>
					</g>
					<g>
						<circle class="st4" cx="53.95" cy="305.34" r="4.05"/>
						<circle class="st5" cx="53.95" cy="305.34" r="3.19"/>
						<circle class="st6" cx="53.95" cy="305.34" r="2.47"/>
					</g>
					<g>
						<circle class="st4" cx="67.49" cy="305.34" r="4.05"/>
						<circle class="st5" cx="67.49" cy="305.34" r="3.19"/>
						<circle class="st6" cx="67.49" cy="305.34" r="2.47"/>
					</g>
					<g>
						<circle class="st4" cx="81.02" cy="305.34" r="4.05"/>
						<circle class="st5" cx="81.02" cy="305.34" r="3.19"/>
						<circle class="st6" cx="81.02" cy="305.34" r="2.47"/>
					</g>
					<g>
						<circle class="st4" cx="94.56" cy="305.34" r="4.05"/>
						<circle class="st5" cx="94.56" cy="305.34" r="3.19"/>
						<circle class="st6" cx="94.56" cy="305.34" r="2.47"/>
					</g>
					<g>
						<circle class="st4" cx="108.09" cy="305.34" r="4.05"/>
						<circle class="st5" cx="108.09" cy="305.34" r="3.19"/>
						<circle class="st6" cx="108.09" cy="305.34" r="2.47"/>
					</g>
					<g>
						<circle class="st4" cx="121.62" cy="305.34" r="4.05"/>
						<circle class="st5" cx="121.62" cy="305.34" r="3.19"/>
						<circle class="st6" cx="121.62" cy="305.34" r="2.47"/>
					</g>
					<g>
						<circle class="st4" cx="135.16" cy="305.34" r="4.05"/>
						<circle class="st5" cx="135.16" cy="305.34" r="3.19"/>
						<circle class="st6" cx="135.16" cy="305.34" r="2.47"/>
					</g>
					<g>
						<circle class="st4" cx="148.69" cy="305.34" r="4.05"/>
						<circle class="st5" cx="148.69" cy="305.34" r="3.19"/>
						<circle class="st6" cx="148.69" cy="305.34" r="2.47"/>
					</g>
					<g>
						<circle class="st4" cx="162.22" cy="305.34" r="4.05"/>
						<circle class="st5" cx="162.22" cy="305.34" r="3.19"/>
						<circle class="st6" cx="162.22" cy="305.34" r="2.47"/>
					</g>
					<g>
						<circle class="st4" cx="175.76" cy="305.34" r="4.05"/>
						<circle class="st5" cx="175.76" cy="305.34" r="3.19"/>
						<circle class="st6" cx="175.76" cy="305.34" r="2.47"/>
					</g>
				</g>
				<g>
					<g>
						<circle class="st4" cx="224.24" cy="305.34" r="4.05"/>
						<circle class="st5" cx="224.24" cy="305.34" r="3.19"/>
						<circle class="st6" cx="224.24" cy="305.34" r="2.47"/>
					</g>
					<g>
						<circle class="st4" cx="237.77" cy="305.34" r="4.05"/>
						<circle class="st5" cx="237.77" cy="305.34" r="3.19"/>
						<circle class="st6" cx="237.77" cy="305.34" r="2.47"/>
					</g>
					<g>
						<circle class="st4" cx="251.31" cy="305.34" r="4.05"/>
						<circle class="st5" cx="251.31" cy="305.34" r="3.19"/>
						<circle class="st6" cx="251.31" cy="305.34" r="2.47"/>
					</g>
					<g>
						<circle class="st4" cx="264.84" cy="305.34" r="4.05"/>
						<circle class="st5" cx="264.84" cy="305.34" r="3.19"/>
						<circle class="st6" cx="264.84" cy="305.34" r="2.47"/>
					</g>
					<g>
						<circle class="st4" cx="278.37" cy="305.34" r="4.05"/>
						<circle class="st5" cx="278.37" cy="305.34" r="3.19"/>
						<circle class="st6" cx="278.37" cy="305.34" r="2.47"/>
					</g>
					<g>
						<circle class="st4" cx="291.91" cy="305.34" r="4.05"/>
						<circle class="st5" cx="291.91" cy="305.34" r="3.19"/>
						<circle class="st6" cx="291.91" cy="305.34" r="2.47"/>
					</g>
					<g>
						<circle class="st4" cx="305.44" cy="305.34" r="4.05"/>
						<circle class="st5" cx="305.44" cy="305.34" r="3.19"/>
						<circle class="st6" cx="305.44" cy="305.34" r="2.47"/>
					</g>
					<g>
						<circle class="st4" cx="318.97" cy="305.34" r="4.05"/>
						<circle class="st5" cx="318.97" cy="305.34" r="3.19"/>
						<circle class="st6" cx="318.97" cy="305.34" r="2.47"/>
					</g>
					<g>
						<circle class="st4" cx="332.51" cy="305.34" r="4.05"/>
						<circle class="st5" cx="332.51" cy="305.34" r="3.19"/>
						<circle class="st6" cx="332.51" cy="305.34" r="2.47"/>
					</g>
					<g>
						<circle class="st4" cx="346.04" cy="305.34" r="4.05"/>
						<circle class="st5" cx="346.04" cy="305.34" r="3.19"/>
						<circle class="st6" cx="346.04" cy="305.34" r="2.47"/>
					</g>
					<g>
						<circle class="st4" cx="359.58" cy="305.34" r="4.05"/>
						<circle class="st5" cx="359.58" cy="305.34" r="3.19"/>
						<circle class="st6" cx="359.58" cy="305.34" r="2.47"/>
					</g>
				</g>
			</g>
			<text transform="matrix(1 0 0 1 188.9329 292.8022)" class="st6 st7 st8">OLED</text>
			<text transform="matrix(1 0 0 1 193.2308 307.811)" class="st6 st7 st8">TFT</text>
		</g>
	</g>
	<text transform="matrix(1 0 0 1 110.7516 387.8325)" class="st7 st9">Adafruit Snake Eyes Bonnet</text>
	<g>
		<g>
			<path class="st10" d="M123.8,51.66c-0.03-9.69-0.05-19.38-0.08-29.06H0.03v181.38h102.86c0,10.02,0,20.04,0,30.05"/>
			<g>
				<g>
					<path class="st11" d="M102.89,233.95c0,2.61,0,20.1,0,35.29"/>
					<g>
						<path class="st6" d="M102.89,264.13l10.28-6.25l0.23,0.35l-6.66,16.76c-1.28,5.84-2.57,11.68-3.85,17.52
							c-1.28-5.84-2.57-11.68-3.85-17.52l-6.66-16.76l0.18-0.35L102.89,264.13z"/>
					</g>
				</g>
			</g>
		</g>
		<g>
			<path class="st10" d="M282.12,51.66c0.03-9.69,0.05-19.38,0.08-29.06h123.69v181.38H303.03c0,10.02,0,20.04,0,30.05"/>
			<g>
				<g>
					<path class="st11" d="M303.03,233.95c0,2.61,0,20.1,0,35.29"/>
					<g>
						<path class="st6" d="M303.03,264.13l10.28-6.25l0.23,0.35l-6.66,16.76c-1.28,5.84-2.57,11.68-3.85,17.52
							c-1.28-5.84-2.57-11.68-3.85-17.52l-6.66-16.76l0.18-0.35L303.03,264.13z"/>
					</g>
				</g>
			</g>
		</g>
	</g>
	<g>
		<g>
			<g>
				<g>
					<path class="st12" d="M168.6,78.31H74.51c-1.19,0-2.17-0.98-2.17-2.17v-7.97c0-1.19,0.98-2.17,2.17-2.17h94.09
						c1.19,0,2.17,0.98,2.17,2.17v7.97C170.77,77.33,169.79,78.31,168.6,78.31z"/>
					<path class="st12" d="M168.6,167.45H74.51c-1.19,0-2.17-0.98-2.17-2.17v-7.97c0-1.19,0.98-2.17,2.17-2.17h94.09
						c1.19,0,2.17,0.98,2.17,2.17v7.97C170.77,166.47,169.79,167.45,168.6,167.45z"/>
					<rect x="82.29" y="76.91" class="st12" width="78.54" height="78.54"/>
					<rect x="84.47" y="79.09" class="st13" width="74.17" height="74.17"/>
					<circle class="st14" cx="164.75" cy="72.15" r="3.39"/>
					<circle class="st14" cx="164.75" cy="161.29" r="3.39"/>
					<circle class="st14" cx="77.98" cy="72.15" r="3.39"/>
					<circle class="st14" cx="77.98" cy="161.29" r="3.39"/>
				</g>
				<g>
					<g>
						<circle class="st4" cx="92.02" cy="69.13" r="1.81"/>
						<circle class="st5" cx="92.02" cy="69.13" r="1.42"/>
						<circle class="st6" cx="92.02" cy="69.13" r="1.1"/>
					</g>
					<g>
						<circle class="st4" cx="98.06" cy="69.13" r="1.81"/>
						<circle class="st5" cx="98.06" cy="69.13" r="1.42"/>
						<circle class="st6" cx="98.06" cy="69.13" r="1.1"/>
					</g>
					<g>
						<circle class="st4" cx="104.11" cy="69.13" r="1.81"/>
						<circle class="st5" cx="104.11" cy="69.13" r="1.42"/>
						<circle class="st6" cx="104.11" cy="69.13" r="1.1"/>
					</g>
					<g>
						<circle class="st4" cx="110.16" cy="69.13" r="1.81"/>
						<circle class="st5" cx="110.16" cy="69.13" r="1.42"/>
						<circle class="st6" cx="110.16" cy="69.13" r="1.1"/>
					</g>
					<g>
						<circle class="st4" cx="116.21" cy="69.13" r="1.81"/>
						<circle class="st5" cx="116.21" cy="69.13" r="1.42"/>
						<circle class="st6" cx="116.21" cy="69.13" r="1.1"/>
					</g>
					<g>
						<circle class="st4" cx="122.25" cy="69.13" r="1.81"/>
						<circle class="st5" cx="122.25" cy="69.13" r="1.42"/>
						<circle class="st6" cx="122.25" cy="69.13" r="1.1"/>
					</g>
					<g>
						<circle class="st4" cx="128.3" cy="69.13" r="1.81"/>
						<circle class="st5" cx="128.3" cy="69.13" r="1.42"/>
						<circle class="st6" cx="128.3" cy="69.13" r="1.1"/>
					</g>
					<g>
						<circle class="st4" cx="134.35" cy="69.13" r="1.81"/>
						<circle class="st5" cx="134.35" cy="69.13" r="1.42"/>
						<circle class="st6" cx="134.35" cy="69.13" r="1.1"/>
					</g>
					<g>
						<circle class="st4" cx="140.4" cy="69.13" r="1.81"/>
						<circle class="st5" cx="140.4" cy="69.13" r="1.42"/>
						<circle class="st6" cx="140.4" cy="69.13" r="1.1"/>
					</g>
					<g>
						<circle class="st4" cx="146.44" cy="69.13" r="1.81"/>
						<circle class="st5" cx="146.44" cy="69.13" r="1.42"/>
						<circle class="st6" cx="146.44" cy="69.13" r="1.1"/>
					</g>
					<g>
						<circle class="st4" cx="152.49" cy="69.13" r="1.81"/>
						<circle class="st5" cx="152.49" cy="69.13" r="1.42"/>
						<circle class="st6" cx="152.49" cy="69.13" r="1.1"/>
					</g>
				</g>
			</g>
			<g>
				<g>
					<path class="st12" d="M330.83,78.86h-94.09c-1.19,0-2.17-0.98-2.17-2.17v-7.97c0-1.19,0.98-2.17,2.17-2.17h94.09
						c1.19,0,2.17,0.98,2.17,2.17v7.97C333.01,77.88,332.03,78.86,330.83,78.86z"/>
					<path class="st12" d="M330.83,167.99h-94.09c-1.19,0-2.17-0.98-2.17-2.17v-7.97c0-1.19,0.98-2.17,2.17-2.17h94.09
						c1.19,0,2.17,0.98,2.17,2.17v7.97C333.01,167.02,332.03,167.99,330.83,167.99z"/>
					<rect x="244.52" y="77.45" class="st12" width="78.54" height="78.54"/>
					<rect x="246.7" y="79.64" class="st13" width="74.17" height="74.17"/>
					<circle class="st14" cx="326.98" cy="72.7" r="3.39"/>
					<circle class="st14" cx="326.98" cy="161.84" r="3.39"/>
					<circle class="st14" cx="240.21" cy="72.7" r="3.39"/>
					<circle class="st14" cx="240.21" cy="161.84" r="3.39"/>
				</g>
				<g>
					<g>
						<circle class="st4" cx="253.55" cy="70.22" r="1.81"/>
						<circle class="st5" cx="253.55" cy="70.22" r="1.42"/>
						<circle class="st6" cx="253.55" cy="70.22" r="1.1"/>
					</g>
					<g>
						<circle class="st4" cx="259.6" cy="70.22" r="1.81"/>
						<circle class="st5" cx="259.6" cy="70.22" r="1.42"/>
						<circle class="st6" cx="259.6" cy="70.22" r="1.1"/>
					</g>
					<g>
						<circle class="st4" cx="265.65" cy="70.22" r="1.81"/>
						<circle class="st5" cx="265.65" cy="70.22" r="1.42"/>
						<circle class="st6" cx="265.65" cy="70.22" r="1.1"/>
					</g>
					<g>
						<circle class="st4" cx="271.69" cy="70.22" r="1.81"/>
						<circle class="st5" cx="271.69" cy="70.22" r="1.42"/>
						<circle class="st6" cx="271.69" cy="70.22" r="1.1"/>
					</g>
					<g>
						<circle class="st4" cx="277.74" cy="70.22" r="1.81"/>
						<circle class="st5" cx="277.74" cy="70.22" r="1.42"/>
						<circle class="st6" cx="277.74" cy="70.22" r="1.1"/>
					</g>
					<g>
						<circle class="st4" cx="283.79" cy="70.22" r="1.81"/>
						<circle class="st5" cx="283.79" cy="70.22" r="1.42"/>
						<circle class="st6" cx="283.79" cy="70.22" r="1.1"/>
					</g>
					<g>
						<circle class="st4" cx="289.84" cy="70.22" r="1.81"/>
						<circle class="st5" cx="289.84" cy="70.22" r="1.42"/>
						<circle class="st6" cx="289.84" cy="70.22" r="1.1"/>
					</g>
					<g>
						<circle class="st4" cx="295.88" cy="70.22" r="1.81"/>
						<circle class="st5" cx="295.88" cy="70.22" r="1.42"/>
						<circle class="st6" cx="295.88" cy="70.22" r="1.1"/>
					</g>
					<g>
						<circle class="st4" cx="301.93" cy="70.22" r="1.81"/>
						<circle class="st5" cx="301.93" cy="70.22" r="1.42"/>
						<circle class="st6" cx="301.93" cy="70.22" r="1.1"/>
					</g>
					<g>
						<circle class="st4" cx="307.98" cy="70.22" r="1.81"/>
						<circle class="st5" cx="307.98" cy="70.22" r="1.42"/>
						<circle class="st6" cx="307.98" cy="70.22" r="1.1"/>
					</g>
					<g>
						<circle class="st4" cx="314.03" cy="70.22" r="1.81"/>
						<circle class="st5" cx="314.03" cy="70.22" r="1.42"/>
						<circle class="st6" cx="314.03" cy="70.22" r="1.1"/>
					</g>
				</g>
			</g>
		</g>
		<text transform="matrix(1 0 0 1 163.4 55.798)" class="st7 st9">TFT Screens</text>
	</g>
</g>
</svg>
